<mxfile host="Electron" agent="Mozilla/5.0 (Windows NT 10.0; Win64; x64) AppleWebKit/537.36 (KHTML, like Gecko) draw.io/24.7.5 Chrome/126.0.6478.183 Electron/31.3.0 Safari/537.36" version="24.7.5">
  <diagram name="Page-1" id="CzTf13Mh9t576aNFviOK">
    <mxGraphModel dx="1235" dy="731" grid="1" gridSize="10" guides="1" tooltips="1" connect="1" arrows="1" fold="1" page="1" pageScale="1" pageWidth="4681" pageHeight="3300" math="0" shadow="0">
      <root>
        <mxCell id="0" />
        <mxCell id="1" parent="0" />
        <mxCell id="g1zk6DP0Fgjaqv-QIjmF-1" value="&lt;font style=&quot;font-size: 14px;&quot;&gt;&lt;b&gt;H264.EXE&lt;/b&gt;&lt;/font&gt;" style="rounded=0;whiteSpace=wrap;html=1;fillColor=#f8cecc;strokeColor=#b85450;" parent="1" vertex="1">
          <mxGeometry x="640" y="230" width="160" height="80" as="geometry" />
        </mxCell>
        <mxCell id="g1zk6DP0Fgjaqv-QIjmF-5" value="" style="shape=flexArrow;endArrow=classic;html=1;rounded=0;exitX=1;exitY=0.5;exitDx=0;exitDy=0;entryX=0;entryY=0.5;entryDx=0;entryDy=0;" parent="1" source="UfEq-I8O2FfTew14tHw4-2" target="g1zk6DP0Fgjaqv-QIjmF-6" edge="1">
          <mxGeometry width="50" height="50" relative="1" as="geometry">
            <mxPoint x="810.9999999999998" y="160" as="sourcePoint" />
            <mxPoint x="967" y="160" as="targetPoint" />
          </mxGeometry>
        </mxCell>
        <mxCell id="g1zk6DP0Fgjaqv-QIjmF-6" value="&lt;b&gt;&lt;font style=&quot;font-size: 14px;&quot;&gt;pixel_ram[]&lt;/font&gt;&lt;/b&gt;&lt;div&gt;&lt;b&gt;&lt;font size=&quot;3&quot;&gt;(128MB)&lt;/font&gt;&lt;/b&gt;&lt;/div&gt;" style="rounded=0;whiteSpace=wrap;html=1;" parent="1" vertex="1">
          <mxGeometry x="839" y="130" width="120" height="60" as="geometry" />
        </mxCell>
        <mxCell id="g1zk6DP0Fgjaqv-QIjmF-8" value="" style="endArrow=classic;html=1;rounded=0;exitX=0.5;exitY=0;exitDx=0;exitDy=0;entryX=0.5;entryY=1;entryDx=0;entryDy=0;" parent="1" source="g1zk6DP0Fgjaqv-QIjmF-1" edge="1">
          <mxGeometry width="50" height="50" relative="1" as="geometry">
            <mxPoint x="820" y="230" as="sourcePoint" />
            <mxPoint x="719.9999999999998" y="190" as="targetPoint" />
          </mxGeometry>
        </mxCell>
        <mxCell id="g1zk6DP0Fgjaqv-QIjmF-9" value="" style="endArrow=classic;html=1;rounded=0;exitX=0.5;exitY=1;exitDx=0;exitDy=0;entryX=0.5;entryY=0;entryDx=0;entryDy=0;" parent="1" source="g1zk6DP0Fgjaqv-QIjmF-1" edge="1">
          <mxGeometry width="50" height="50" relative="1" as="geometry">
            <mxPoint x="820" y="350" as="sourcePoint" />
            <mxPoint x="719.9999999999998" y="350" as="targetPoint" />
          </mxGeometry>
        </mxCell>
        <mxCell id="g1zk6DP0Fgjaqv-QIjmF-10" value="&lt;b&gt;&lt;font style=&quot;font-size: 14px;&quot;&gt;CONTROLLER&lt;/font&gt;&lt;/b&gt;" style="ellipse;whiteSpace=wrap;html=1;" parent="1" vertex="1">
          <mxGeometry x="1537.01" y="650" width="120" height="190" as="geometry" />
        </mxCell>
        <mxCell id="g1zk6DP0Fgjaqv-QIjmF-11" value="" style="shape=image;verticalLabelPosition=bottom;labelBackgroundColor=default;verticalAlign=top;aspect=fixed;imageAspect=0;image=data:image/png,iVBORw0KGgoAAAANSUhEUgAAAV4AAAFpCAYAAADUVEAPAAAAAXNSR0IArs4c6QAAAARnQU1BAACxjwv8YQUAAAAJcEhZcwAADsMAAA7DAcdvqGQAAHnrSURBVHhe7f0PbFNXvu8Nf+fNVXpuVFdz5bztOc7DUT2tMOJRU0Yk5U5M82I3p3bgbVzOjUMnCTwnhqNJwr3ERRMnmjiphoTnJM57qUGHkKOB8AwY3hM7KpgKYmuCcyeD0e04UsFoEEZtjYYnnrco1lR4Tu4hauR3re3txHacfw6YAL+PtOy9115777X/+Lt/67eX1+8HUQYIgiCIrPH/EL8JgiCILEHCSxAEkWVIeAmCILIMCS9BEESWIeElCILIMiS8BEEQWYaElyAIIsuQ8BIEQWQZEt4XhhBs1UUoqraxqRiBkwbodlngnRIzXmQeuGDepUPDYPzsPDuERy0wlJWgqIhd3xIV9Pst8CQexphZWGYeE+eJp87aEN77NtSwG6PmzEI3vRdmflN1eMX5BfjOD1uzHqoSVpaXV+lhOuNHZEZcnkLkhh2d+8XyCYKUlgdONGzh2zWz2iyCeCzC/hNSSZkB5qGF6/I0ePTnCUzcf4hH4nw2iFy3zokEvz5DQUyLyxbD2yGey1bP4uVFkVnyOs3jEcL3JjA5FRHnM2e2rilJtV28B8Ryj4UbFlQ323FHuhWGVgu66nWQRx4CPxSXE2uS58fijTBx3mWA9Q/50B20wNJtgakM8BwzoLLbm/JjjcDXywR3H7MMInLoefkmJfLFpfOJwNXbCd8KRLNAYxLqEEsmVL05AVc3q8sRv1ji6VPY7Mb49S6o88SMJ83dPtQesOHO61XoYuel64NceLr1MI8sR3pFRmy4+ECcnsc0PFdc4vQKeVWHE1+Mw1GnEDNWSyFqZ69/7B7Q/a14DzAD4nGJr/eyHWGo0XHagsZKNbR7jLCcyeI1JTLiuRFef78ZrnAhTP/XCRjZDaguU6OqbQBdKtYUu2DDcFgsyIi4O1mT8iG0vaMYPRO7YdVb5MgVl6cyzay0T0cVUKwXM5bBy4qtQh1iqQrG/iG0l7C6DNrgekGb9qH/6cUEFGj8xAgtOy/ag11ofIM9HMd8YoklyOEffrjGEi5mIg8uwjbCvoVyTxsZimev/9w9cHS7FOErFpy9KxZbLUJzJRcSEtpniudEeEPwf8lsiPVqbH1VzBKQoPAtbsE8RGRW7AI42+9BwZ5eJsoSMW8RZvyw/tKJv6rrwN43xbyMkKC4iNeFNWcTHwI37DDXqVAiNEdLoKpjVniqRRd3oQiuDtZkrWyAdTRVfKYRGknw9cXdLOLSdMSaxHNN8tCZGjZfA9utxP2VQNdsgz91Q0l1WqDeSxEJ4hu2ToFs4bZGEm9UoWoTk95zg+wqzifw2Tkmy4Wo2jnfal3yPM9zd8XdW55kH6qqBpZ55365SKD8SIcCdg94/yffT9zvPgDPBWYRp7i8IrfS1Pm+2DoQ69t0hc+40MTLiOvGruNSrpaV3y/E4+M5EV4Zas+PY/x8LZtKJhL5C7OA5JDHF9y+Cvd9CYrWTcISv6m3qFDT4UQwTYs30N8O+7QWJtYEfUnMy5SJEP9ZvDJrnUTGzKjcZ4HvP+nRwZujh2pRGLLDtLtz7oUXE34Ld6H4ZdB/wpusXdDLvmGip0HDhTkBCJ6pQ0XrVWA7a2ryZvwuGW5yN0vvSl0bIZz9eROcUj3aD1tgqt6Afx+1oqk3wV0Td+sEFdgr1MkIdYTV+4MGOBcRX5mqnNm77MH3Ky/C9z3orDPBlcvObc1ym/cy6D5SM9FxwDkuZs0SwNUrE0BZLXQpN8GyzvNCfNGD6t4JFDHr3HKIWerSAOzNB2C7Ly5fKZJX8LI4OcvXfTD1Btj50UGnlgv32fT1TlRyoZ0qh1GocyOU/BxX1sF2jxWQVaHf7UZXGd+AGl1s2t1XNe/+X4jHd78QmbAq4e3p6UFpaamQ+PSaI+LCqTMTkFZWQSk2P6fv32P2RgTOwyb4ZHuFH2JXXSEmr3RCf8CJJFuGWRWH2Prq1hYoV9OUm5lG8JIJ5qEIpDtrUS7lmWF4Pr+Fv9piwukjjULTW729EUcPV0ESdsL5O1HmvnDCziqlbT2Kxu28yapF46e9qGW/MN+F4Zh1xOppPhaAYn8/Bg5WCU1bbf1RHKsrQHjwBJwrMtAiyK8ZgKM1tp2qg/34WMVy3R7EHALT8Paa4WIPI8vpLtQKdapCO5tWsxLWXy/yw11Xi64DCtbUboJmpwnXZEYMDHVBuYyGh8DXQUwyy6xKEoH9Uoo9N+6EIyRBVaWa2ZWJLPM8L0gxOgbFc7+d1f+QgVmsAQz/Lm6XrozpgF+w1gteS7TyFTCed+LE4Xa071NCykqc7GX34vpGnDtvQpVQZ7bv00eh/WEA1i47wjm5kEilkAj+sdi09IcLOctSeKz3C5EJGQsvF1qHw4GpqSkh8enVim/gWEWs2TMvNbHG1AqZCcK23wzPD3Xo2F8oZgKT3zKriKHY74DjcG3M18huuv79zOoat+LUDWExI8zE2YqAwgijZrnKMEfSsWwpgf6QB9B04XyrUvQlS6FjPy7n8RQr5TWZMD/x7WRsPl/KfujMQmHN/9keETmFMF5iFv6ZmIUfGh1mP9ViVFXIY8tFFEolEyEffH8QM5aFAuWqxO3kQrGRzc+IfR9mfBh2RyDZzn6wiadFUgzlj5lAf+mfbSrPI+LH8FhQnJGiuFKHwpWcWl6HnGLodrEz4nYya1DM5y/VhuyIyPTQFbFzdT/REbHM87wQW8qTHwyKDXiLf38vzK2AaYTHbWjuZfeBlFm27yaI5BvlUL8uTnOEVhmTfL0O8kR/tUSJ3RXs2G+M4toqxPHx3i9EJmQsvJcvXxan5kiXtxKSewIkJtY0FMssjwi8v6yHNcAsiX9pT2OtMnEpS77p5BreDI7gpj8mGxF3DzrHC2Bone++WA6px9J1QItXRsz44Gc2BGd7R3A/mxUNu+J+PJZ2MrEXlwqs343OfYWsaWiASuijaUbfpQDCCYZa8Cu+hg+dGnEb8bSPiVGsyKp4iVlXs4SCQv0jg4bkfRVp2PkSy6RDeBAaMHC/GKbz52DcGIaruT7WbGZ4D7NtLNWlT0SxQw/FjAe2K6L6iC/VCra/x64hY17/uGWc5+WSs1yHk+h3nU0l0NRb4c1Roj3tPZnAZIi1ypg+Mys2FcVbXPbvIJCpq4PxpO8XYmnWlI83uSdAYipegfgx0e2oRJMbzNLpR22iJbEYMjm4FP+F9+Oc8qKn2wPprk40bowtXimpx6Ld04WBQ2pM37DixGhMNQP9NahoHUauqh2nL7nh5n66kwahHnNIUFg/gP8x6sCJZiY4TC4ch2ug2aZH343EZnJq96W5tHuDWOQxsuBDcoFueeFLFlhvS1B1+Ciq1itQe1xsNv/MDG8kjEkuJAX5i3TpS2BdOXQJL9nCYy7hpVrN36f3FS/vPD9uUq/HUZy7NIrrV45Ct9x7Mh2PrR94du8XIpmMhXfHjh3i1Bzp8rJN8Ey98KZX2zuE9tL57VjZ6/znFsCdeIs3TngS3H56OU+C0MU+uJj+hlOsuqQ3yEv9mSMNko2FgkU2EeLNWy/sp1kltnfgaL0aCplUsHCk0leSurVNM1EKh1llJHLWNG9E13EHRt0WaF8KYuCIXbAQ81/jzgh2bIWJD6u5pEjq6bFKpPmC6+Mhq0+6fS3ULe/Obe4hVkJZFJvnzeaufzFC8R07n3X1GGDWcuGW4rTrzkeKD4WXbG5cvR3A4Dm/8FLtw7THubzz/PhJ7U6mZPuWLG+f+TLhHIfD8/0Jgdu32OcGKNbF5jMhq/cLkZaMhbelpQV6vR55eXlC4tM872kSdptQfyyIwoP96EojugJF7ObKYfJ5PvlFWuiynTW+CqD8zzLkl8Te9KamWmZlzVoKH63cLIjcTn6x8ohbL3HfqUjkqztJze07/ZXQaJqS/zTww63YygVM9DMqSlVMivw4NeBjjeoEWPPeM7K8f4Ytm7xiKEtYPS8MwJ7iF4iMe+D9TpxJYcPGYvbphTfRHfF6LfoPq5F7L4iJPB327pzftF6IXOEl2wQcbSY47sdeqi0kass5z2uKje9Bw4TV53AmuKUYES/OXpoANqmwdfmnah5ZvV+ItKzK1cCFdmxsTEjZFV3uH1ShZLsVfvHG5F2Gqts8iGypRdWr/AbyJKcvxBsqT42WNiVyxztRfZBZtmyZq78JdccCkG43Yfd69qN+vTitJVAs+DtES2bj4nf+XwLXkvZvP9KAyg7+YqUKtWVcIvg+2JfbDH2HjdXDjr5mPTTNriQ/W+FHe6HI8cPyD03ouyJuq7sGh0aZgJeKLpi39qKDd8wfakBNG98WK3fFBvMuPUy9p3BtATHMDCl0B5mlyh5TljoDrEPx4zOgst6EvguBtD9cqaYWOmkE9gN6mM+4hHVcZ8wwsHMyzV8gTTnRdy61GbII4ku2yP2J2Zdq6VneeV5bKLCvWQfp3T7UVFtgj1/Puia4vlPAaK5iV2EVZPV+IdKxpny8K4JZMNMzEUREQ8Y/4hIs2OkvBmBuNcGUmo56EX9/La04is97q1DgZzcbW2YeDOFH+45i6BP+VvfxMOG2JO3f8vk3gl90YMiEQuFNdS7Uh92wVMox6bayeljhmCxG1wULtGxpIHCHFxK6YJ37nFnb8hAcv4xtyzoigbp1ALb6uE9TAuWhIQy0aiH5oi92/F2nENrI9jfYBfXj/t8+s1SFOr0ZgbM3VqcT119CefclnK5TpLc885RoHxqAqUwCb79ZWMd82gdJGauje1T4R1fgWD0s48u3t4SXbOx79qVaWpZ5ntcYuSXtGDptgjpvGFZ+PTv64JVUwTJ0evnvLRYky/cLMY8fUHh3giCI7PLsWrwEQRDPKCS8BEEQWYaElyAIIsuQ8BIEQWQZEl6CIIgsQ8JLEASRZUh4CYIgsgwJL0EQRJYh4SUIgsgyJLwEQRBZhoSXIAgiyzx94b1hgaaoCKqOhGCKidztg46Pf9v8/8UpHpF1oeipiVFib1mFdXTHF44xEB6KjbVrGlnmoCxiPZeOkiBGb92uEsfxTYkOuwjT9z1zAThZUlWaYLu1dsfQIggiM56+8G5qiAVTvNIH+7xwJtPwDAxgAgoYD/y/lh/l961yYTzTiSEn0odeDOOqiy3J0UKnWsbQ1DMB9P3SnjR+70LEordeRKRoL7r4uL3xiLY8Ouxi4VoeONHEhNYeUaLxEB//14TynGuw1tWi77ZYhiCI54I14GqQQHuAj+8awKlfpVi9t0/i6Agg3dWC2hWNuK/AhzsVTM2H4ZoNXpnAg6tCvmSnbjb68GKEBg9h4DsFFEvFHwo7YTkWgKTyKBxMcGcj2n5qQAET71P/unAE3oBjAL6ZQpj65iL3mk73QiuZwMAZT/rWAEEQzyRrw8e7rgqN2yUpVm8ErtPM2s1R4+P6lYW65Mi0OhSybQz/Zr7YhVzcEpagvIxHRVgCZol2Hg0IId7LXxbz4nD3xpYiaI6L+/iDD0KAm5KU7W58W4hMG4nE3QYh2PYUoWh7n2iRh+D7YgIo0uG9xLAreUqoS9j3F+NYm6PGEgSRCWvk5VoulP/ViOKcAKzHRevu9lmc4FEW9uxlVp9QaGW8+h60m7gLgwdCTCQEjyvAlHmxqAVxmPj3dsL3Bg/xni4MY64Qgfev4lZzaRfGx8fRVSrOx5mKCMekeHMuvGJubi5yZ30nQQS5O/rV/HmRBeR8ncjDNRwtgSCIlbIq4e3p6UFpaamQ+PSqeFUH454CYOQoTt4VrV2JFqa6hWMLLI4UH+rVTLRS3A33PRi+u1TUghjT1634dLQABvMCId6ZpT5w/TqcS1jkgdMn4MkpRpU2vhUZqk5ex/ULjcwqjyHEBUtDLLQ6E+ZVhPMmCGJtkbHwcqF1OByYmpoSEp9erfgq6kwxn6axkgkeUHzgYyjzxIUZkPuuFuqcCIZd3AEQIzQ6jAAKoFEvIbszflh/6QR2mrAvwxDvHB4L7sDpCSia2qGj6K0EQTAyFt7Lly+LU3Oky1sReUo0cgv3QRhhaRUaKlYV0o9tbyu0vMeEexQ+waIM4OIF1qbfVINd64USCxLob4f9OzU+PqBMH0NsOdyzob7ZBWw/iv7qpd7MEQTxorBGfLxzyFTlggtA/pFeDAqZwH8Qv5dNLtSVVZBEhjH6JZu9exVu1mQv1L63eJTW+zYcYlZqcWtLZv5lDhPdml1WBN8yon8ZQTRfWqB3xaMZ7h2WQ76iXh0EQaxlMhbeHTt2iFNzpMvLlNyc1F67MsjF6Kpp/aHhkPDHhlckKev9WIVySQTDIz4EPG4wOYVOtbgl7T1jZbYx4DusEf8EwVMFrHdZ5l0rKti88EeNhYh4Yf4Z24bCiHP/Ugv5kl3WmLDyp8294Lw/ZwS/CgKSV5YUboIgnh0yFt6Wlhbo9Xrk5eUJiU/zvCfJhiIl+3TBNZL6jj8Cj2OYfRZCpUwR1ZxiaHlXNbcVh9wTQJke5Ut4MDbs5H9gSE0mCO/GZFqY2LyxNF0vB0bEj779TXDl6HD0+HJElyNDcUkBcNuDaw/ELE6EHyv7flc5+xKOIIhnn7UX3p33jd1pBQ5cwrk9KX7RmSBsdXpYb+dCvr0Re0tlyJ0OwXvpLJzjYSgOONg6c122ZuF/O67m/4AD1N3XYSnLxGsbgq2aWb0w4tJ5sZcD/7fZhz2YrD/N9stM1tn6yaFra4AyjZlaUKiG4tUwnAc+QM9kI06zbQmv+ZjImsrM8EiVMPxXHTbkTsLbb4HzvgLGwXOoFa19giCefdacj3dRcuSoPT2KgVY1JNf7YG41wdTRB8+f34bhuDu96HLWvyf8hXjZfxFeLo8imJyZxmTkUWw+5MWw8PfeIJyHWd14/VLSWeGfEI8Q+W4a0989ZFMiEi0sn1tQ9Zoftg5e1gIP1DCe7CfRJYjnjLVn8RIEQTznPFsWL0EQxHMACS9BEESWIeElCILIMiS8BEEQWYaElyAIIsuQ8BIEQWQZEl6CIIgsQ8JLEASRZUh4CYIgsgwJL0EQRJZ59oT39gAMFXpYrmcSd5cPdFOEomrbvOEXnxxemPmwkh1ecZ4giBedtSG8fESy2XFv51JJmQHmIT8iiePvTk9iIjSBh7OjyzzfRG7ZYKpUxc7JFhX0+63wJA4dSRDEM8easngLNKak8W+r3pyAq9uAyiMJcYI3meAev46uhFHGvB1cqM3MtnzKiA+QRQdJXwk3LKiss+JaTrkwBrDlEz1kXzEh3s2OlcIOE8Qzy5oS3pcVW6EuU4upCsb+IbSXAOFBG1xTYqEXhmm4ztkRllTh6Hn2EOLnZHsjjn5qQEHYhb4L2XOWEATxeFnjPl4Jiov4MOETmAzHcjBmFprd5jEgdKZGmG66whe40MSb4wm+VKGZvrMk1kxX6WE648OkuCyJ7/ywNeuh2sIt5xKo6ixJzfnYfhpgv+WBpU6FEr491uyv6fYgLLhBRD/uzljIoMCxCla+BrakkOyPEB61wFAWr08NLKPxg0rHJCb5yO1FhXg7MYrFxrfxFvsK8JBABEE8k6z5l2sTIW7ZvQJJmjDvssp+uN1udJXxOTW62LS7uVhYJkT43WeF51ExDIdYM71Zh9xLnbDxuGmJ8PhouwywBhXY+wl3cRihjthh+qABziRfqg+Wn/VgYksLurq7YCzLR2DIBE2rCxEUo4Xv+6QBfCh2ed0Aq1c/qhIDaHzRg+reCRQd7ILlkBFaaQD25gMp4pzISzzUGvDHkBA5Y5apCLOFgYLXFgg9RBDEmmdVwtvT04PS0lIh8enHysw0gpdMMA9FIN1Zmz5OWp4EUqkUEsHdmwsJm5YKM2E4j3Drk4nx4FE0bufN9Fo2PYDapGhC0/D2muGa1sJyugu1vFxZFdrZtJoJrfXXCb5lZn1rDw/haL2WldGi9rADA7tYpUZP4Oxdcd/SV4RQ8LmSfDYtQW5SvLVidCTW5ZABBayGw79byGUgRfkeHaRf98F8OoBpbllPh+A89Ck8OexhohcCBhEE8QySsfByoXU4HJiamhISn16t+Maa6Ly5z5vyJdAf8gCaLpxvVQqCtmxmbsJ3nX1rdMnh2XPykf+yOM2Z8WHYHYFkexXUieUkxVD+mBnDX/oTup3JsOHN5CBqhfpdzMKdgHd8Gf7WLeXJMdgUGwSXAb4X5tKSW9KO063FCB6vQQl3g5RUoPN6PhpPH4XuVbEQQRDPHBkL7+XLl8WpOdLlrYTkXg0WdB3Q4pURMz74mQ3BdCHdFyIUAveAKt5cIAZbnFBQ2G5k0DAn+ELSoHNcLLMYryuEQJWhibSe48WZF75+PpGxTtT1+iApNaAr3tPjb4Lo+9hMXcoI4hlmTfl4k3s1qKHd04WBQ2pM37DixGgmf5hYHqmCP5ualHhqnlRmjZ/4xIlwaReGjjRCK/b0MJ3vR+1LHpiOeARfL0EQzx4ZC++OHTvEqTnS5a0WycZCwaqcCK3AqpTJhJdcgftLvPmX5qOAfT2UyJMEfzZtkS/u4rgXEHoxyAqegDyHArgZYVb7W4VIcnDkFKJ4E/se8cAXyyEI4hkjY+FtaWmBXq9HXl6ekPg0z3vcRG77BXFb0Vv8HG45s++RYXgS/2gwM4HQn8RpTl4xlCVsHxcGYE9x00bGPfB+J84IhHDnq+R/LQQuOxFk0q0sSnpj93gQHwqhUFKfBnYMTJBvse/1G4SHC0EQzx6rcjVwoR0bGxPS4xDdvwSuwcMsuXiyH2lAZYeHiVAVassWtj3zZVyifHCeYet9EWRN8Fyo641QTLlg2tWEviss/4oNZjZtT/ojhhS6g6wc7ypWZ4B1KL5fAyrrTei7EEhozkfgajXAfMYVK9OtR93pCUi3m7B7vVhEKkNBDhPkETtcrExgNX7YPC1qd0kRGWqAvs0mbM/DtmuprsPAfSm09To8AbknCCIbRNcCfzwbrd68Obo5NW17P1rXPhi9+VAsx/ltm7Cs7bfiPOfh76Of7t4WW2fvYHQinu0/G23+8Cfitiqjzb++Gb3YzqZ/ena2jMC3V6OfNlZGt70T2++2/1If/fQ3E9FH4uKJX1ez/OroKe/VaM8/bIv+hG/vnW3R6n+6Gp38Xiwk8s1nzdGKn/Dt/CTa8z95zrVoGy/ffk1YPkcsv/rXSTVJ4WH0pqMtWlcuHhvb5rZ/aIsOfpl4QgiCeNb4Af8QNZhYAP7PtYpjgPHCOdSuEzMJgiAyZE31aiAIgngRIOElCILIMiS8BEEQWYZ8vARBEFmGLF6CIIgsQ8JLEASRZUh4CYIgsgwJL0EQRJYh4SUIgsgyJLwEQRBZhoR3jRO8YkaNKjZAu+Y4H6eNIIhnnbUhvPdtqEmKAJGSxMjBsWi/qdF7E0iIQBxDjP6bmLaooN9vhfNu8hCP8+Ax30b6YKrTiNGHWSrh63bCdj2UfhDy6RA83QaoSsTyQmRjPyKp0TNmIvCfMUEvCirfrmE2YnECNyyo73Bh8vVamLot6NqR/YEg/b2quXOXlMzs7M4RuWGDqTJedn6k5sRrYRpZfAh3b4e4j4SI0bG85H0msuS9QRBriDVl8S4YCeKjDWKJDNlUO7etZj3kk3Z0VmtgOL/AQOnfeWHZVQL9kVuQ7ejCwBW3EM3YPdQPo0oCb1cFPjjgTA5HNBOEbV8FTJciKD8Y21fXLhluHjOgstubJNT+I5UwHLsJyQex4+3aU4iJC/GIxXP4fzOMMNT4+LgRVWVqFL++oshzj4VIhNVIooB6pw66pFQ8F52DPSAq91lxU6ITHhCWQ7Uo/JZHajbBleb55vnXi+y4FmDKA6dbnCaI5xX+z7Wnjjgs5OJDJM4Nz3j2j2JGKvOGjFxoSMaH0ZtH+bbejx7yxgd/FHnI1nl/c7TSci36MGXIx1m+n4wOt7wffZ9tNz5A4yNXM9vetmiPT8wQuXm0guXXRy9Oihn/NhxtZnXa9k+/FzNixI6tIno8IGYwrvEhLDe3saN4WkxEz/6U1eEXV8X5dDyKDv+cldnWE/194vkSr2nFiTtihngthKE366KD34rZKUw66thysVzCdVvqXCx5bxDEGuIF9fFKULi/BbWyMJwDidZXBJ5u1pwtsmCgWQlJUnj2BHKk0B7uxXtfHMKJG7GsiGQDswIboPtxbD5O4SYeS3gS4bjld8MHD9t/ubZYzIghK31PiFh86w+sNqLrpekKX+JCk9BEjzWzY03qBthveWCpU6GEL9uiQk0aV8X0/YQyQvPfzNZbwsWSRAQP/8LO1g8Xi/7hg2+MldmuRXHi+VqnxHtvABM37iRZt4qdVSiEH+c+S+evDmDwnJ+1UKpQxdbNnBBs1fyY06c5VxRBPB1e3JdrOYUo1xQwIRzFtbgy3D2Lo245GprUc3HOHjDx2iP6LlU1sIyI/l22/t5/LID9s5jXUVpiQHtbFRQpYh26x90Z+ZCKGwzdu8M+ZZBJY/OzrHtdiC33MPKILa5Cv9uNLh6+CGp0cTeHuwVzUu2D5Wc9mNjSgq7uLhjL8hEYSnFVPHCiqdIEe0QNo+BmMUIdcTEhroRFfFgszSQP2AzcOgFDWYl4DkS/dawAO6Ag7jDBl80LzSTH62+yr4cRsCOaQ6ZDLTuuiUEnfKk+7dtX4b7Pjvij1UbXyIeySXQtzSZ2/Pyc5yiwgWImEU+ZVQlvT08PSktLhcSnnzUkkpfZ50NExHBAfqcDE2W1+PDV2DwiHpg+NOHmFgsuMfG7tD8f9ta+2SCT0qKtkP/Oy+y3dEwjPN6H5uMBSHfWojwutN+L36mI4d4DXzGhzsmFRCqFRHDpxqalTLnnPLwSZnEP4Wi9FuoyLWoPOzCwi+1g9ATO3o2VCI3YmbDJ0fj/aRf8wzxCcfvpdiiZ/Wm/vNArqhTuB4Uw+ZFJppeVRlhaDVC/OgHPMQNq4z0sUsUzgZf4Q+juHWEbcQL3J6GurIIkYoczpRq+S+z8S6qgVyWF98yAXMi3JAcu3fBgGB72gFU09dJg9sRTJ2Ph5ULrcDgwNTUlJD69WvENHKtIahIKqdrGGo6JBGDdmVImng66xDKZEMT4eARq1dZZgfMd74SnsB3H9hczC1WKfAkTxzd+NGeNcSs18hCTSeITf3tfAk39ACbLunC+VZkgmo8DGTa8mSxOhfpdgqvCOx47W/mv8jh0k7jzZUIPDIkOR8fHMd6mFDOWYF0tTo+6MXrxBLrqq5hgNsJy/hyMG5nFetoKZ6IPYblw87dIBz0TP9eVhBD1Ux44LkRQUKlDcQ4T/K/F/CTibpf5qeLYIl3t7tnQfJQtV3Whv5oi1RFPn4yF9/Lly+LUHOnyVkLaXg1Nyrm35wIF0DanlImnPYVimQyYCeKbrwvw+jpRIme8cDIhUO8sR9xYnfx2QrBGY7YpQ7BSg7Hm+CwbsFusj6m6GBgxo7rbm9Rb4YnwukJwVYQmYmHwc1Ut6NLkwnO4AiW8u1qzFbbrQUwvYqGmI1cSt7xFcuSordOyCR98f4hlrRwFPtzJajtiw0Wxy1n4ig2emQJo/o4fBdPntPUsRG3i9U5IJu42Sge7rgO/sCKQp4WlQ5scKp8gnhJrysf7soKHZU9uIqq3yFOsxZexoSSlTDxtWpk1M/ktV8xXIMljX0w9g2zbr8R/mYGbuDWjQOHGub0L5d+Uz/c/Jvl1pVCI9ak6eAJDh9QIXzDPvoTDfxC/U5mJeUIVbPuPBeEFoBvXr5yDpV6H/Ekn+g7oUfJBE5yr7esq/9FcaPmFXkAyBPFcIAy9TKtLeMkWxlUXf6lWg13xiM1pkaE48XonpK0K7jaaT6DfiL677Fz8sgVqUl1ijZCx8O7YsUOcmiNd3pplxseauswO3aTC1tQXXZzJEGu4M5FNUFmhT+usucvgPtAcJiysTOBCJzoPO5Ha4JVsLGT2XQQ3b8fMYtnrvE9yAMFU8bt/T1j3Fe7OyIR7AWF9WUGsfTD9XRjh76aR+6oC6j1GWE6P4n8MNkLxwIvOM8vz8QrHdMSV4uph/PGbOb+tTI4NTHwD7FwkE8S9r9gXe5KlPaJXP4y9ZLtyFYG7gzjHHkzqjz6cbV08Fm5YcICH4N/ZgY5SUl1i7ZCx8La0tECv1yMvL09IfJrnPRtE4P2lGfaIFDqD+GOX5qMA03NN8f8guhG+jc1yofb+jhl7CUoc/sKDgEop9DaQRO7AeWEAV2/HlsWJfOljgijB2xvF9TYpoWZC5RmLv6KLEbjsZHtTQFm0HOkJ4c5Xyc6L2PoFbH2+nzCGWzXQ7LQm9RzIfUMJJV+c1M1gYfLZfpznT+Bi0jFF4HEz4c5hlmYRny+GUsW+RrzJvRRuD8P5NbPgS4oXENPc2Eu2kAOmlvhLtcfoCY94YW6xIyytQu9j97ETxOpYlauBC+3Y2JiQ1rTohnzwjHhiaciKhp0aNDFrt/BgP9pLxJ9kngz5kiC+iRtugkAGcPYYEzS2vu1jM67mShD8zSiC08yivDuAA72P0FivFn7Usp2N0EonMLBPD8tQbF+uM2YYDjOR2rgXtZtim0WeGnv3FCAy1AR9tz1Wrr8pZpltb4RuWW/cI3C1GmA+4xLWt3frUSesb8JuoakuRfkeHaQRO5qqLbALx+5C38EDGGDmq7o01jEt1id44b/hSisaUJVyTPbDBpjcESj2N0DNXTRcQPcYUJC4ryt9aPp4ABNSLRp3zj2o5iG8ZItg4n78pZqYv2qm4T12CK5wLop3FmJyNFb32XQ7k7eCBPH4WJXwPjPwcQRaTbF0xIlJWRXaz7sxUJ3ofSyE8l3ANSrKEBPIlsNa/NVYJ/SVXfAX9WJoyILamZPQlxRhW4sPyuP9MLweKw6JEl2DAzCVSTB8JLYv8+kA8ndZ4D5dm+QXVuy3YeDAVsBtiZU742fCY8H5T5TLfPmjQOOnDXhltAdmtr7lwiTkKevnlrRj6LSJieMwrMKxm+H4449Q2+uGpWyZ9l9OIUxDycdkHZVA2zqA/j0J525jI2ynjdg6MwwL31eHDX52ji1nu6Bc9IDEl2zMUo+/VHs8TCLI/4jCBNh30hy77onpX3lfaoJ4evyA/31NnCZuWKDZdxO7hs7NCeoag1upFccA44Vzq+6P6mkrgul6FQZGTeyxQxBEtngxLN7lsqkBHdsn0dfYCe8T7//1lJnxYfw6szV38d4FBEFkExLeJCRQfnIeXT++hiaNHuYzXgTDYUSmphFh38FxO6wnk0cae1aZ/jqIiVe1MNU8ziY+QRDLgVwNCxC568SpozY4vwwiIihtLiRvvA21vgHGysKn1hH/cboaCIJ4OpDwEgRBZBlyNRAEQWQZEl6CIIgsQ8JLEASRZUh4CYIgsgwJL0EQRJYh4SUIgsgyJLwEQRBZZm314/3OD/sRK06M+GN/WsiVQP5jHRpaG6GOR4ZIJBKE83gn+tz+WBRfVr6wrAHGg1Uo/GGsiACP2rvTOm+s3Nntf2KEOh5nbRks+SeGu33QVbuhOe9E43rA2xGPGJyM5NVCKA1GtDzFP2QQBJF91o7w3mPiuIuJY44c6j16aN/Mx3TIg7OnXQhMKWAcZCKXOHDNAw9Mu03wfCdFccVu6LbkY/ILJxyXfZhAIYznB+bKi8L7F40JTaq5QEJ8+6f6XQjOpNn+IiwlvIHjOtR8WQP3ySphLNqY8PKwNbUJ4yJMwj90CrbxMKTbj2Lo0HJHJiMI4pmHC+/T5070+Iebo5u3tUWv/lnMivPwWrTtfbbsw+OsVJzJ6MWfsbx3qqNng2JWnD9fjZX/6dnohJgV/ePZaPXmzdHqX8/mzBFky95h5VuuRh+JWUsx8evq6ObNbN9/FDMS+f730Z5tm6N1jkkxIxq91s62v7ktek2cn+MhW/Y+W1YRPR4QswiCeO5ZGz7eG8xSvQ8o6hqhTnQRcCRK7P1IzqzWUXjviXl3BzEwDhTUdcy3Un+oxsf/yOzKu8yajMc5W4zXq7C7lH2PeISw7dPXO6EpKmEWaoaDZXudsE+pUbt9OZEkJFB+pEMBjw78P+cF2CEI4jllTQhv6PZNRGbD1sxHXufA+Lhjdozc0LhXiIem06YfWUu6RS3EOfN9GRRzFiMXkv8oTgq8xLJeSh8nbEmm4bniAlRabBWiMywDyStIH6aRIIjnlVUJb09PD0pLS4XEpzMl8ue/sM+ECL9LEAzy12RyyBZ6IbZOLkS2DQaXY0UGcPMW+5LJhDDyuSUmuK+PwrIsizWFBxdhG5GgqjIWDmg5TAf8wku/gteSg9gTBPH8krHwcqF1OByYmpoSEp/OVHwnv50Qp5aJEKyRWarLtSoXYioIz2EzBrib46MPmZW8OsJjLvgl5dAKQSCXYhrhcRuaez3MRNdB9+5ypZogiGedjIX38uXL4tQc6fKWQ/5rBeJUAmNmFBUVJSXzmLhM8ANMIzIlzC2bwLGK5G2W6mG6MAF59Qn0Vy8SlHFZBDB4zr9IRAcXmhL3XVQCTb0V3hwl2v+lHcrVPkQIgnhmWBM+Xsl/4l7Ov+BhYridDbth6bYIyaRJFma5nNumQYQexObncT/IlvJyyWJaoDHNblNI/Q6Mjl2H42Dx6rty3b4K9/1C1Pz9QnYz706WsO/uozh3aRTXrxyFbpnd2AiCeD7IWHh37NghTs2RLm85yIqUwpt992jCXxxeVUBdphbSVkXy6yfZJl4+CKdr3l8iBMJfeJj9KUHxjxOjCAMvK7bOblNIRfLVuytEfJccmNikxXsL/hFDhuLEfZcpoZBJlu0LJgji+SFj4W1paYFer0deXp6Q+DTPy4j1u2AoAibOHMLA18uIaLZRLH/6EGzxLmZxvvPg01/52Tb3onaTmPekmfLAcSEC9UcfCn+YIAiCWIxVuRq40I6NjQkpY9EVkELXy5rc0gD6qj9Aw2EbXCMeeEZcsB1uQN1xZtlKlSieNWBZ+UMWqH8YgHWXRiwfK6vbboIrUgjj/1nLbMwMuGGFpkQF8+jyQ1pOX3fBAzW0JWS/EgSxNGvCxysgUaL94iVYdv0Ik6N9MLeaYGo145T3Ed6us+DS50yYE/+e+6oaliEH2ncW4JsRKytvhvXyHUjLTBi4kvB34RUyPRVhH48Q+V/Lje8exsV/9UCyUw81vSAjCGIZULDL1fLADsP2E9hwchSmbLk2CIJ4piHhJQiCyDJrx9VAEATxgkDCSxAEkWVIeAmCILIMCS9BEESWIeElCILIMiS8BEEQWYaElyAIIsuQ8BIEQWQZEl6CIIgsQ8JLEASRZdaG8N63oUaIyqBD310xLy0h2KpjERxqzsTjqXlhTorsICaVHg1HPAgtf5CxFKYRvu2Edb8Olnjki3RMh+DpN8GwXSXsdzZKRgZMhwNwHmmArtsr5qQncsOOzv16qErYcVbb2FkhCOJZYo1ZvBNwfMaDrC/A3YtwLCTMm2oTojt0wfgucPO8CRUHnFhRoPbpMAKXrGjYuQ2aPZ2wfTGBh+KiedxzoumDCpjOBPCSci+62L53bxCXLZs5gd+mqUHneR8mFgxpFIGvlwnuPgs8ETn0B9mxNimFIJ0EQTw7rC3hzWHS4h6Fb0acT8H3mQMTrExaZMUJ0R20qD3kQP+eAmB8AIO3xTLLIPSvB1BzyI6QrArth2uFaMVpmQmg7+NOeF9rhON/OHGirRZatm/FghEoFuC+HQeYwNtDMlR1dKH2DTE/DRF3JxoGH0LbO4rRMxY0VrJj3SKnKBYE8YyxpoRXu7MKkogdjnSDkItRHiSsjFbMWorCTW+xzwmEJmPzgktjSxE0x/1ixnzySzvgGLsO53EjdBvzFxS16dFTGLivRPtxA+QLFIq4TYL7oeFCgs0944dFU4QijQU+fphSJTqGruP6hRMwVhQif6EHCwI42+9BwZ5edKlWHSGOIIinyNqyeEt00K8DPP96cZ57YPp3LnhmCqD/e6WYszThB9z7KcErr8TmeUj4l3Jy8VcLihsr8boC8iUHNJ+Gx+0BNr0NyQUT9KqYX7lkZwP6rs8NoC7RtKC9iFnqxz6FR8wOneuBPSyF7hMjirlg58mheH0ZNqsQTFOConWTsNSpUML92FtUqOlwIpixH5sgiKfBqoS3p6cHpaWlQuLTqyX4f0uwq6YQuOHE8H0xUyCMiw4udDXYtV7MWpRphMf7cKCXWbYbE2KvravCwHVmzdanD8C+fIL4hsfZvNEH07lJKPdzv7IJ5Tk+DByohOVGrJQQoqjNCMWUCz39rC4RF6zHA4IgG1cYJmj6/j1mu0fgPGyCT7YXHd0WdNUVYvJKJ/Qr9WMTBPFUyVh4udA6HA5MTU0JiU+vWny/Z1K1vRbqnAAclxMiCN8dxDkmZmr9h5CGYqHb53Glaa5HQ1EJNPUDCCgMONefYey1RZlESDCmtbAMDcDIfa1lVWg/bYFWEoa9P0EI19Wiq16B8GAPGpp7hNhsLa3qFYeTn/x2QvhW7HfAcTjmT9bWH0X/fgUwbsWpWbEnCGKtk7HwXr58WZyaI13eislTQ6cBJgadsy/ZYi/VmNC8y6zEBV68JfdqYKm1FoXfDqCmshPe5YZPWynvlkOdqKASNcrL2Pe4D3diOQLyPR0wrAvANx5BcWsLE2dxwYpRsO0nv+6Ta8pZbgQ3/dSpjCCeFdaWj1dEWZHwkm3Gh1E3f6m2RDDJpF4NLFUaMfCpAQUPnLCcS7CenzDydcwCxTQiiX7XR5MIi13EHkYW7JyWGTK50PPiLzxIJ0EQzwQZC++OHTvEqTnS5WVEkfiSze1BeNQBe4S/VCsWF66AjW9D6Ncw263hcSHHBu5r/io4788Lk9/ynFxIEly4/uOH4PxOAW1ZAQLHzbAl+a+Xh+x1Lq8B3En1s4SZqLOvl/OopwNBPCtkLLwtLS3Q6/XIy8sTEp/meY8HRewl2+gJGI6v5KVaCrdv4hb7Knjtcf/FQIbi0gLg7lnYEn2rU17YrzDLk1ncs4+J231oHwyjYE8HujpM0OYFYD2cwcuwImbF5wCu88nrhi7b4UMBlP/58XuyCYJ4MqzK1cCFdmxsTEiPT3RjxF6yTWCCWYfCSzUxf0FCPnhGPLPJdcYM/b4BTOQUw6DnzX/GAyeaSkpQc2b1rgfFP3ai9tUw7I16WIb4Pu3o3NME15QCxnp1rP/vTBADXawO0ip01rM65CmFF2sY70SPe4WugTw1WtqUyGXrVh/sg4sfY38T6o4F2LkyYXcmDyaCIJ4Ka9LHKyC+ZEP8pdpS3LDB1GqaTeZ+L/DjWlg+PwFd/N9kjyKYnJnGZOSRmLEKcgphHByAUQkM9/J9WuGRaNF+/jRqX48VCZ4zC2NPqA82oFDsOyzRGGFkIunp6IRrhdorrTiKz3urUOC3wcyPcTCEH+07iqFPlCvuJUEQxNPjB1GGOE0QBEFkgbVr8RIEQTynkPASBEFkGRJegiCILEPCSxAEkWVIeAmCILIMCS9BEESWIeElCILIMiS8BEEQWYaElyAIIsuQ8BIEQWQZEt7HzZhZiIJhHhPnnwCBkwbodlngXTAMfGZ4O3j0DjO84jxBEE+GNSe80+EAnEcaoOte6uc/DU8rE4pWD5tKRxjO+lgooKVFMAL/kBmG7SoxdFARVJUNsI6EFtj20+XRn/mobQ/xGIb6IQjiKbBGhHca4dtOWPfrsE1Tg87zPkwsZc1NeeAakaCqUhyCMYWIuwed4+LMokSYpVcJQ7cHkf9dD5MQOsgEXf43sLVW4AP2AFhr4lvY7Mb49a7FI3IQBLFmWRvCe9+OA3s6YQ/JUNXRhdo3xPxFCF+xwyMph+rHYkYiU15Yj3igWC+Ow7sYd8/CciWMgrrTcPQ2okoIHVQFY78b5+oKEB6y4ORdsSxBEMRjYG0Ir1SJjqHruH7hBIwVhcgXx65dmBCGP/OjYJcOxWnKCqF28gzo+MfkwJBp+f+FwOP3vvXWfJFW/J0ehTLg3h94zAcvzNwN0ZHiArlvQw3LrzmTEgToOz9szXqotnDXRQl0+/vg/U5clpYQbNWsbL0d/lELDGUlMbeHqgaW0eR4FUm+2JkA+nayeY0F/oRAoOELDcL6DUNz9Zq+74GlToUSvt0tKuibbfBTqDaCyDprQ3jz5FC8vozBzuPcvQjH3QJo1GksWiHUzjS0H++DYkkBZ/y1DAXsyzVoRzg1gvH6WgxccsKyc8n4F/NwHa6HM1eHlsMWdB1QI3d8AE27ksUxLV9aUN87gaKDXbAcMkIrDcDerIFpoYgVOQo0flIFadiOnjNiQDZm8X96zAdsNKK9UgwJdM+GukoTrkIHI3enfKKHzG+FoXIZdSII4rGyKuHt6elBaWmpkPh0thDCvaeNw8asxu4BTKha0FK6TCFf3wjrASbgX1igKauB+YwHgQer9+pKK/vhOFwLbZka2j1dGOjWQsLE8cSlJaKt5WnRNXgUjdvVUG+vZdMDqGK67+k/iwUDFm0yooM9HAL9FjgfAIHTFrgiTJAP1SImu+y8/MKKwBuN6D9pjLlTtjfiKI/CvJw6EQTxWMlYeLnQOhwOTE1NCYlPZ0V8xXDvxTvemxeHLXyhE9aAAsYDTOTEvOUg33MOoydN0K4LwXXMhJrtrJnPmvjmIT8ybYkXbykUp2JIVOVCsErfl3fEnAX4mw3YkFj5nELoP5ID973wpYY0niUXygMt0Ob5YO1owKHTEyio64BBDEGE+x4M32V10usgT2wFbNwKJdvXknUiCOKxkrHwXr58WZyaI13e42aah3ufUkOvSZHdiAs93T4hmm/tOjFvBUg2VaHrzCjGx9w412GA+tUgXN0GVB5wzgvhnhlyyPlLQx4SXuzrO5cW7zsrf4O7VEIIMWt2QSRqIZBmZNyHQDy4ZpzgHcFa9h3WpOzXADv5eAki66wNH++ymYbH7YFkpz6lK9U0vL098PwwRXAyIU8KRUUjLIP/Aw62rfD1TvQ97j9DbNgNi9BtLZ52Y4O4aDVEwvw1IechImm64xXuSdxnQvroceydIIjlkrHw7tixQ5yaI13eY+XBRdhHJSgvKxYzREJ29F1hplvYDoPQi0BMB13CYtdBPp/OqozA1aaDrsIKn5gzRy7kmnJwGQ/eeww270wQd75m32/KIXtVAbXQbS2eFIuGrw9+ze1VGVsvNp+WB050Hg1AWqZF8XcuHDqW0P84P/YCEbK3U/Yrpo0rf3lIEETmZCy8LS0t0Ov1yMvLExKf5nlPksBn5+Bfp4euSMyI80Nl7E19atoT87PGLL10VqUEhYqXMRFywjk6v80due0XmugFr+WzTxl+FHcV8IVxvg2ldUX4RrxJ/uHI2DC8M4C6NOWhkcqf7uBO4oozAQxfCgLrlCgWOyjMhz1AejvZw0ONj9u60L6fWeoXDsF6Q1y8cStUTFv9vzoFX8p7w+CoB8G19g8RgnjOWZWrgQvt2NiYkJ606DLZxVX3BAo07wlWaBJ5chSns+Q2xZRKtonPp7cqZTVdMG56BFezBvrmPthHPPCMuGA73IDKDo/QJauhjPeQkEOpYnbjXSuaDttZGQ/sRxqgOWBP+wIu7G5G5cE+uFg5V38TKltdiKwzYK9qid4WERdMdWbYrvB62GGprsPAfSm0H++ef9wikdEe9IwCxa0t0Er4MXXAsC4M+y/7EBC6ihVib5tW6HLWUB3fNjvGNj075h6c8qY7AoIgnhTPjo933AnH/ULU/P0qfbip5MhR+y/8hVoV8v/ogLXVBFOrGX2jk/jRLgsunayd7Qmg+McBWCoVmLxkYWVMOHFdgt3/0g5tbHESukP92J0zip42E8wnffirUiMGzjQu3bd4fSOO1r8CzxEz24cF9gdyVPWeR1fpAv00Il70dMdE3VghPlpyFNj3sRaS+wMw9cc6oUlKuzB02sSE2Yu+Dn6Mh3AqpIDp5BC6VCvpA0IQxGr5QZQhTq9pfN0qNNwzwt2vW9Qf+uzC/7lWASuMuHQ+3v+WIIjnkWfG4i1uHcX4cyu6BEG8SDw7rgaCIIjnBBJegiCILPPM+HgJgiCeF8jiJQiCyDIkvARBEFmGhJcgCCLLkPASBEFkGRJegiCILEPCSxAEkWVIeDMgdKYGRUU1sN0XMwiCIFbA2hHemTA8Rxqgj0fXLSqBqs4M+w0aOWtNMhWE94wZNfW2RSN0RG7Y0blfD1UJu6bVi5cliBeFtSG8M0HY6jQwDX6DfFUjuvhYuocaoZzywLJPA8Mg/VzXCtP3vLB11ECl0qPpmAuBh+KCeUTg62WCu88CT0QO/UF2TZuU4CMbE8SLzpoQ3unRE7DeBtSHhnCiLRaZNxZh140u1TT8R6zwpAllQ2QbLw5VNsH6O0C5/yiMZWJ2GiLuTjQMPoS2dxSjZyxorGTXdIscKwjiTxDPLWtCeCdDPFaYAoUbU8eFlTAB1qHgtSD8TJjjTN9nlnCdCiXcJbFFBX2zDf4UjwRv4prjZQS3BbO8EoNFigEnzZd8sO5RxabjsdWmQ/B0G2LNY5ZfUmZg5YJzoXTifOeHrZlZdUK4oRLo0tQjkbhveGDUCdNO7lKZ8xMvu76j4aS6qfaklGNEbtnE7bMyzDI1nfHD2cGmU5v6KfWft895bMDeM25cHz2Hrj1KyBdU0QDO9ntQsKeXxvoliDSsCeHNl/GIYAE4zvnmRXPIVbXDeckBYzzczz0b6ipNuApdLNzPJ3rI/FYYKi3wC9EWmPAwkapkTVzff9KjQ3Bb1KIwZIdpdye8KZaz63ATnCiGbqcOxX/NMrjbY18FTBciUPPmMVvfqIrAdUiPujPB2EoCIZz9OVtXqkf7YQtM1Rvw76NWNPUmxDpLSwB9rT0IyNRsn+9Bnrey+vq6q9HzoAgthyzoOqBFfoCVMyYIKjs/9ftYC+FRMQysjKVZh9xL9eh0i8vjRLww7zLAGlRg7yf8OI1QR9i2PmiAc0HxlUK+Ubq01Xr7Ktz3JShaN5n0gKzpcFKYIYLg8EFyMqW7uzv67rvvColPZ87D6LX296ObN2+O/uTD+uinjt9Hv3n4SFyWyET07E83Rzf/9FT0m+/FLM4fjkcr2Lr1n02ymcnoxZ9XRCsaB1npBHw90W2sTLNL3O5v24T9vd9+je19jke/aWb526Jtv03e/+//aVt08ztt0WtsvxO/rhbWrf71N+JSzqPo8M9Z3d45FL0m5qSSfr3V1ffOP1ew/OroWWHlR9GrLbwOzdHhxELf34ke/5Cft7PiPh6x882OZ1tb9GpiuYfD0eZ3Nke3WW6KGYtzrT1xm3M8cvFzyJaxVPmLs9Hh31yNDp84EH2f5/3sIjtignixydji7enpgcPhwNTUlJD4NM/LDAmUhz7Hpe5avI2bsHU3QK8qQcnOBlhZ03qW+x4M3wWK9brZcDwCG7dCyVq0vi/vsBkpdL1OOI9XJUdxeE0mzE98OxmbFykuU7K9x4mFj4ekHFWlyXZdsaEflsM6yB6JGVCgXCUXpzm5UGxk8zOzBRYgdb3V1JdtbeNbsQnB2vfBM8K+yrRC7LVZchR4WywmMOPDsDsCyfYqqBPLSYqh/DEzhr/0r6r3weS3sTDziv0OOA7HfPba+qPo368Axq04FQ/CSRAvKBkL7+XLl8WpOdLlLZ9cyMqMOHHhOq6POnD0gA5vP/LBxoNQHvHHmu/BO0LUX99hTcx/OZsMsCf5KKYRGrGiYVfcZ8rSTquw7uJMYpJrxt/I5r99F0KyFwuugYV4KSfTV0eZ1peR+AC6HwR3higU8+MpJxFi5ZhQRwYNCeeQJw06x8Uyq4Y9YMoSHzAQw+VHcNNPvVSIF5s14eNNJVcih3JPO058PgqLRoLg+R7YE/6sEAvXniZ9FBOcQH8NKlqHBf/w6UtuuN0snTQgWQbWDk+rvgUaU/rz+KS6fcnkwjH9ZYr6ZhMvNhkL744dO8SpOdLlLU0AA3t00B2wz2/e5kig1ijZRAB3uCmXLwN/DQfZ28lh3ONpI4/I5oX9NCu8vQNH69VQyKSQSnl6ZRldmVjzXlCGh/NDtk9HEA5HMC2+wHt8rKa+KayTYwOzgANfJb4ETIM0XziPD9kDLu15XGW3L9nr/CSK1yyR8CS44+jlvET/BkG8eGQsvC0tLdDr9cjLyxMSn+Z5K0cOxesPMXHdCdc9MSuBwK1b7LMAMm6CbdwKFdNW/69OwZfydjw46pl9Y/6Ii2OKrzXy1Z1l+S3f3sKEPuSAM6XJHfhVLTTbO3FtKRduBqymvskUQ6liX252LhOfHDMB3OSnMU4eK1fC9nFhAPaUnUTGPfB+J85kShETb/YAcJ13CkIbJ3TZDh+7lsr/TDGUiRebVbkauNCOjY0JKTPR5eRC2dwF3asB9O3SoOGwDa4RDzwjdvQ161F3egLS7Sbs3sjLFmJvmxbSsB0N1WbYrvByLtja9NA39+CUl6tNMbPa2JfbDH0H31ZsO5pm13wrNg3SHUYYN0Zg369H5xDfvgf27lg9FPsboF7Ex5sZq6tvMrlQ1xuhgAfmXU3o4+fnio1N12EgSWCl0B3k5Xyw1BlgjR/nEQMq603ouxBYokvcEuSp0dKmRO54J6oP9gnX09XfhLpjgdi1XC+WI4gXlLXh45Uo0X7xEo7uL8Yj7ymYW00wtVrg+IME6tYBDH0y9yZfUtqFodMmaCVe9HXwcodwKqSA6eSQ2Fmfic9hNyyVcky6rWxbVjgmi9F1wQItWxoI8J4Pi5AjR+3JS7DslMBzhG/fBOuIBB92X8LpPU/C67rK+qbyei36TxqhfsmHAX5+ep2YruhHu0ZcHoeVO/e5BbVvRuDsjR3niesvoZwfZ51iVa4GjrTiKD7vrUKBnwk/27Z5MIQf7TuadC0J4kXlB7xPmThNPLeEYNtTAev3Rlw6X5vcbY0giKyzJns1EKvgng2dSf+wYzy4Bs9t1lr4cSGJLkGsAcjifc4Iu02obvPgFY0Re1Uy5E7fgfOfB+ANK2AcOofadWJBgiCeGiS8zyF8wJ2eoyfguRXBdI4E8iIdGj4xQv2qWIAgiKcKCS9BEESWIR8vQRBEliHhJQiCyDIkvARBEFmGhJcgCCLLkPASBEFkGRJegiCILPMMCm8ItuqipMCNXh7IscgMrzhPrBVSr1UYrg49dPvTDAGaAYGTBuh2WebFpXsuiQc7jQdkJZ5p1qDwTsPTyoXUAPuiEW8zZCoI7xkzaupTIu7GSYq8G4swbBkJLTFa1/yHAZGeRw+CmJj8SwYjr83n0Z8nMHH/IZ7ASJ0E8URZe8IbHoaDxw2DH07X45Ox6Xte2DpqoFLp0XTMhcBDcUEi8ci7f5BBL0TejUUYtrdWoO78E5LU+zbUMIGvOfMiSLYUuv5xjA8aoBBzlkf6B1thsxvj17uewFCdBPFkWXPCGx51wgcltBoJAhcuLi/u2JJ4caiyCdbfAcr9R2Hk49+mIXDGAle4EKb/6ygat8eiMVS1DaC9hA+EbmOPAoIgiNWzxoQ3gMFzTN7KdGjZWQ7JfQecjyUi7QbsPePG9dFz6NqjhHyhwWZlRdDt24v3ksY0kKC4iNlnkYeYXEHYn9CZGhQV1cB2K9F1UQJdMxNwoZ3NrGseYFIMahk4VhErz2PLxf15l3yw7lHFpuO+ve/8sHcYoCpJcIUkRmKeh2gt1tvhH7XAUFYirFekqklZT6xPB3vwHWEtA17fjrjXnAfjTFxXD9MZ/zx3QeSWDaadiWV8SI6RnN5ynb7vgaUuHuizBKo6M5xfx5w7Mf99Bax32cxdKypYmXjrIK1vfyYMzxEepZovYyle19lrN1cHP69vZez8FpXo0h7THPH1BuBLOo9s+0NBdoYi8J8xze43/XVhZYbMc+uWqGDo9iCU6sfix9AtXgPhfFjg+ZO4LJGZ5eyTWIusLeG9exVuJjxaZm1KinTQyyIYdvnEhatBCvlG6ZKDeyt2tqO9XslKJxP8ikmj5BXkJ0b0XRYhnP15E5xSPdoPW2Cq3oB/H7WiqdfLfqjFaEkIaimvG4Db3Y+qhHEbXYfZuqycbqcOxX/NMkRXiGVcAr2Zu0K6ULtxAvbmanReXyJmxJcW1PdOoOhgFyyHjNBKA2w9DUzuFKlxd6Lpc6C4Qgfdj2MhL4Nn6lDRehXYbhTcL127ZLh5zIDK3oQ2wD0b6vdZ4XlUDMMhVrdmHXIvdcLGBXMx2Hp1lSbYI2oYhWCbRqgjLnRW18F2j9WjmQf/HIDhDVb2DQMG2Dnrr1xocEsmjnXsmAa/gWwXO062PdMHklhdf+lNFtU/nUXzASfyP2pn5UyoVfw7PMea0DO2xHn8uo9dv8TzGGQiaUBNZSUMl3LZg5UdA8tX/5A9IJsPxB6kAtPwHmZlmNBGysTzyO61yAUTKvbZhKjPMSLw/rJaEPP8nTwYaRca3rqDnl6XuDwOL8e2dzwIRV3sWAW3GLumDRdIfNc8fJCcTOnu7o6+++67QuLTq+WmZVt087ae6O+/j83fOVER3fxOc/Tqv8XmY0xEz/50c3TzT8+yqRjX2tn85rboNXF+KYTyCesvyPePot84m6Pvb94crT63WOn5dZr4dTWrE1vv19+IOZxH0eGfs3LvHJqr6x/PRquFcgnb/22bsO777deiD8UszuRnzdGKD+qjg38UMzjf/z7as41t8+fDbOvpEOu2rS16NXFj39+M9rzP8j88Hr0jZFyLtrF9bn6fncfEcvH6DSQeB7s2/8yuzeb66MVJPjcZvfjf+HE1R4dT9vHpByx/9ryknqdH0astbJ7V7VriNY4fEzv+GPPPLyf1uj/6TTOb3xZt8yRWIhr9RrgW26I9Pj4nbuud6ujZoLA4xr8NR5v58XctdBctcB4fXowe4Oul5v/heLSCn7f4fRMQ51PO40N2rfn9VecQTmQ06v9UmK/459hVifPQeUC4J9p+G5t/xNbbNu9YH8buL/YbuinmEGuTjC3enp4eOBwOTE1NCYlP87yMmfHBdSUCyXYtikXLUrFDD8WMB66lrLnHjfjCq2hLCfSHPMjfdw6nqzMZQlyBclViuKBcKDay+ZTAlgtRXJYcJke60wLnpROoShxTN6cAsr9h3xOTKc36FP5mAzYkbiynEPqPWF3ue+FLbPdvKYcyoVxodBgBZnVXVSSHPVIoed188P2BzczchO86+9booE3aRz7yXxan0zHFru0Ia0xsr4Iy8QVZTjH2HmeW4w7ZEr1JEpmGx+1hGytHlRACag555W6omYU4PJpgob9RDvXr4jQnT4EN3Kpe6tKknkdJfuwalaihTszf+Dbe4t/fC3MI/MaNiTTnUVK6Gzp2a/lHrgmBQYPjXvatgL4i+fWj5IfJx+QbcSEy71glKC4pZsbwTfhnLW1iLZKx8F6+fFmcmiNd3nKZHnWw5mYB9LpCMYexrhy6TYBnaFi4KbOGVCk2e7tg3C5H8GQd6s+nRHXIkJdyVhfNjPtDrfv1sz7eWf9nBsjf4D/uEEKLdNsT3CxMYDs18f2JaZ99rukeCoGfHcWbyaKyJOFJJkaA7LWYSyMR6caVhplnDx6+sb+RYd7W8gpRuJ7p0dfBRe6jl5C7YldSAjkviRPpmfyWV06K/FQ/FhPZt9k9jkBAOBehID+TcsgXHbCene+v2FfEDkPiNWFJc/hxuOaIJ80a8fFO49oIs1bYrTfAX2DM3kgaWPjLtXEnrj6JPr0LkSdn1ibv1aBF7SEHTtf9P+E/wqzNp+06u92HmkoThnNUaD95CW7uI477P58ohagVHkTz0+4NYpE1zSNMr+DFaLYRwvtngkwLU5prwv3kynkCT6wlMhbeHTt2iFNzpMtbFg8uwsaanAUV/GVC6k1Uy372fpz77PF0LFuYMLwnO9F5kjf1klG8xRuNPvifdBWWwHthgFmWWnR82gj1RhmkUilL+XglQ0st+DU/IBlki0SmyH+tQPiWFca616UmBV9XJhNeEAbur7BVIK73l8j8vgTTkTDC363ExZSPfF7VP4Xmu1ymArjzNWuIvyGf9+I0W8TOYxiT8x7erG632JdCAV5CJudnJIhgovtnHuKxRl6BXJXuuhRDTn2b1zQZC29LSwv0ej3y8vKExKd5XiaEx1xMWhXQ11WluYkaUaVitrD76mPq07sQ7Cf5Ryecv3LCl6ID/hv8l1GMwpX1+n/8cP8js46S3JCRO7iTrqtRKn9i5RKPayaA4UtMKNcpUbyI+1pRqmJnxo9TA75kf+tMEJ4R3o2KkbOVXSf2PTIMT9I+JhBarG45b6O4hF3bIXbOE60+VreTezTQdF9bgY83F2qNmp2PYdhHky9gcOgsPJCgXJXgxsoyir/TMGH1wc7PeQKRsbNwMpEtLNsqPBTkShUrx66NO7lc+EGiEuei+F2l4GoYuJCi0BEfPNfnP8iItcWqXA1caMfGxoSUqejyJ77Qd3d9OdRp/VrsB8UEGLxP77iY9YRQGoxM/j0w72pC3xUPExYP7EcMaD4zAenOWpQ/CXNJKkMBs1gDI3a42P4Ci7hUikvZeYAL5mozbKx+9n4T9BoTXMv5nUVcMNXF1vOwfVmq6zBwXwrtx7vZMS/CW3vRsV2K8FADatpsQh09V2zsHOlh6j2Fa9/xQuwa1bNzN8X2ET93Qpkm2BcdR0EK3UG+nh0Nuzph59uO1y2kgLFeLfp48yH7W/b1NRNVvu3b6X0+uWVGGDdG4GqtRFO/a/b61R8LQLq9Cw1FYsGnwfp9MO2UInC8Bvpuu1A31xkzDM0uhDca0c6Wxcrthomd78Ry/BiqE7vuMaQ7+LGydlh3HQxHYuU8Q1YYKhtg6ncgsJLGApF1nr6P93as765Cq14w9Hjuu8zy5W+lR57wi4PXa3F6yIJaeQiOX5pgajXBeoUJXusAhtqUogg8ZvLUaGhVo+ArJlStZjgXaa3nllng7q2C/IEL1g5Wt6FJFB++BIuGLbzLLNrFfIXrG3G0/hV4jpjZcVlgfyBHVe95dJUmvy2fjwTKQ0MYaNVC8kUfqyM7L12nENpowsBgF9Q/FIuxc9d/0gj1Sz4MsLqZep2YruhHO6/bYojnvErigZVvu9WK4bwPYRk6jdrZXgdc2NuhlgVhY9s2X/pGzE9FhtrTblh2/QihQX6cJlg+j+DtA+z6fZLcQyT75ELZxs+jGpIRq1A3c78Xkp0WXDpZC/msu4id70/Ow1Ipx+QFCytnxolbG9ByrDH5AZkjjx1r9Y8Q+ZyXY+fuuBcvafj2DFA8kZuVeFz8gPcpE6eJ5xL+j6sKWGHEpfO1Cz7cCILIHmukVwNBEMSLAwkvQRBEliHhJQiCyDLk4yUIgsgyZPESBEFkGRJegiCILEPCSxAEkWVIeAmCILIMCS9BEESWIeElCILIMiS8BEEQWWZtCa8YQVcTjxBbooKeR+UVRsBagLt90LGyqu70A+jEov0mDq7OUyySrf3GIsN6TXlg4lFe99kXj36RSZ0JgnihWTt/oLhng6HaCj/kUO/RQ/tmPqZDHpzqdyE4o4Bx8FzCaFVz+HtVMAwyAc3R4uj1LihTBgXnwltx7C/QNjdBHR/WkYmlY8AG3wMpqk66YeKhV1IIX2gQw6iwfV9g+043ZGWGdSYI4gWHC+/TJyGC65/FrDgPh6PN77BlP7sYFeOwziFGo634RVu0bvPmaPNv5sfZjUX7rY6eTYzMy4lHh00bnXcyOriXLftvbdE2vv0TyRFfY2RYZ4IgXnjWhqvhhg2n7gKF+z+eG981jkQL/U4JMO7CtZQ2fzxApub/+BjalQbFlBSjeD37Thed9+4gzt0A1BUt0GkkmBh0Mqs2hQzrTBAEsSaEN+S/iQhrrm8tSh/iofgAD+xoQXmSwIkBMtfr8eF6KT7Uq1cWFDMeluYVCVLjwwY8bkzkaKFTSVBcoUdBZBiulOgXmdWZIAhilcLb09OD0tJSIfHpTImFEM9dOLx2ngRSqSR5eXgYjhFmcf59uTC4d+67WqhzlhkUcyoIZ5uZWctS6PaUpwRA9MM5OAHJTl3MX7zxPWjWRWAf8iTF/8qozgRBEIyMhZcLrcPhwNTUlJD49GrEd6WER53woZhZpaJs5qmh0ywUFDMA6854jwaWSvXoZKKtPXwe7SUpMVLGXRiOSFCuLRYzFPhwpwIYdeHaovHDCIIglkfGwnv58mVxao50eU8GMUBmmT4pAKWyogoSHhTzhpgxSwG0zYkh47tg1LwCV9sHMJxPDHI2Dc+QHZF1eugSejrItDoUznjgcJPDliCI1bMmfLzyN3kYv2lMLxSscSqCcDgyt/xuLEAmRkwome2by1I9E00eFNOV2qf3ZWwoSQwZr0Xt4QF0qabhP3oCnrglO3UNrlH2fX8ANYnb3W4RXq75Ll+dfXm34joTBEGIZCy8O3bsEKfmSJe3HGSFb0OCIK6Np7cofccqoNGYMCz+KcH3mQMTOcUwzFqwc8mkKUDkgmNOTBdEgsK3mHjyl2zibsNXbPDMFEDXOn+7lj2FwI1zGLwbK7vSOhMEQcTJWHhbWlqg1+uRl5cnJD7N8zJiUy32rgf8xz+FJ/XPZBEXHBdYZpEWW7lbYcaHUTeb19SicdaCnUtVNRoUzHjgup74KiwdEfhvcW9wAfIFd0UYV13Mrl2vx97K+dtV76uCGhNwe0QP8krqTBAEkcCa+udazS4rAjlyaOv3Qi3LnfsXGAphPD8g/AtsmrsXWj3QHhlHV6m4bhIB9FXUYOBVE9wnq/Ao3T/XMAn/0CnYmLUq3TUAdzOzZvlfj6sH8PKBSzi3J10Q9Gm4mktgHq/CCVaHYt5bYZl1JgiCSGRtxVzj4x4csTJh8yPCDVaJFIXv7oXxYBUKhf6wESZ+KpjH0v89OE7guA41p6UwXRnAVhcX3vn9HCSvFkJpMKKlshASNh9b5+WF/x7MmHYz0W/zoap/FKYiMXPJOhMEQSRDwS4JgiCyzJro1UAQBPEiQcJLEASRZUh4CYIgsgwJL0EQRJYh4SUIgsgyJLwEQRBZhoSXIAgiy5DwEgRBZBkSXoIgiCxDwksQBJFlSHgJgiCyzNoSXj7gTIcBGpU4AHmJCvpmG/yLjWnLRxVjZVXdKYOf37IK+brj8wfIiRMeMgj7MY3w0W28MPN9dnhjCxcjk3oSBEGIrB3hvWeDYbsBlpEI3t5lEgYf76pXMj20wqCpge2eWC4Fv9OBCfYdueCENzHaw1vl0KwDJobShGYXEMffFaIJp8RdW4wM60kQBBFnjQhvCLZfWOF/SQvLFQcs9VXC4OPaPV1wuLug5sEqu52zYXdmmfHBdSWCAo0WhTMuOEcTBz8Xg1Ty0OzzYrAxHlwV8mejCS+LDOtJEASRwNoQ3hs2nLoLFO7/GOrUMWwlWuh3SoTov9dSFG161AF7pACa/+NjaDcBnqHhJNETglTyGGy/mW/zhlzcEpagvCweTXgZZFhPgiCIRNaE8Ib8N5k8yrG1KH2cnOIDl+B2W1CeJHbTuDbiEUL1fLheig/1aiZ6Tlx9IC7mvPqeIMiRK64Ud0MIHleAKbMeuviA5ssgs3oSBEEksyrh7enpQWlpqZD4dKYEv+IvwHKRu1CTP08CqVSSvDw8DMcIsz7/vhw8UE/uu1qoc/w491niyzRRkFPdDfc9GGaWa8H298BjBS+XjOpJEASRQsbCy4XW4XBgampKSHx6NeK7UsKjTvhQDJ1KtD7z1NBpgAn3VSRKb0yQk0O+h0aHWZkCaNQrkV2CIIjHQ8bCe/nyZXFqjnR5T4YABs/5gTI9yhNa/cqKKkjuO+BMtG7ztkKrYkavexQ+oddDABcvMGneVINd64USBEEQWWVN+Hjlb3LLcxrTid3BEpmKIByOzC2/exXu++ybRxzm/Wjjqd6OCH+ZlmDdcteAupIJcmQYo1+yWXHdQu17SO+pXZgV15MgCCINGQvvjh07xKk50uUtB1nh25AgiGvj6bsD+I5VQKMxYVj8g4LvMwcmcoph6LYI/WgTk0lTgMgFBzxTsbICP1ahXMIEecSHgMeNiUQXxQpYaT0JgiDSkbHwtrS0QK/XIy8vT0h8mudlxKZa7GXNfv/xT+GJiHlxIi44LrDMIi22cq2c8WHUzeY1tWgsUwv9aBNTVY0GBTMeuK4n9OllIq3dLkHEbcUh98Q8F8WyWUk9CYIgFmDthHe/Z0PNLisCOXJo6/dCLcvFdMiDU/0uZmMWwnh+ALWvs4Y+dy+0eqA9Mo6uUnHdJALoq6jBwKsmuE9WzbkT+F+LqweEf7mpu6/DUpb6bzX+l+EmuJi4Wj4qFPMSkMixdYscucusJ0EQxEKsHeHl8DEQjlhxYsSPCDdYJVIUvrsXxoNVKBT6xkbgalbBPKbF0etdC/7jLHBch5rTUpiuDKDqVTGTC/JOJsihhdYVhVecm8d6Iy6drxW6ri1dT4IgiIVZW8JLEATxArAmejUQBEG8SJDwEgRBZBkSXoIgiCxDwksQBJFlSHgJgiCyDAkvQRBEliHhJQiCyDIkvARBEFmGhJcgCCLLkPASBEFkmedUeEOwVRehqNrGphZjueUyI3SmBkVFNbDxsYMXIHDSAN0uC7yJw1g+dcJwdeih22+fPS/eDj7msRlecZ4giMxZG8J734aaxAHNeSpRwdBhg/d+Ysj2549Hf57AxP2HeCTOP3HSnevE1BGT1kcPgpiY/AtSR78kCGL1rCmLt0Bjmh3QvKtejZfGrWiq/ACdY8/vz7+w2Y3x611Q54kZWSLxXCeljzawpVLo+scxPmhYJBjok20tEMTzzJoS3pcVW2cHNNfuaceJz91oL52Gs7l+0eY6sXISz3VS2kijuBPEk2Zt+3hzmOXVYYRyJoBT5xLjqAHT9z2w1KliMde2qKBvtsE/zzCexsSoBYayklgzWlUD86Ugy12CBx5Y9+uh2hJrfqsqTbDdmG91J9WhqASqOjOcXy++9ciYGRpWvuZ0rB6pvtNZv/AtP2zN8TqUQJfm+CK3bDDtjB+bHqYzfjj59lZthS5uzcbqXAHrXTZz14oKfjxnEkp+l1x3VZ0FngfiMkb8GAdGnWL9F/eDE8Tzxtp/uSYpR7kYJdgvZvFoFXVMDK9CByNvHn+ih8xvhaHSAn9ioMmv+9DQfQeF9V2sGW1C7euTcB3So+lC+phpAtwH+gET2qAM+k9489sEneQmrPsqYU50eYh1sEfUsTp0G6GOuNBZXQfbPbFMKmyd+mYXsP0o+uvkSI2BMUcIZ3/eBKdUj/bDFpiqN+DfR61o6vXOPTT4tvZZ4XlUDMMhtv9mHXIv1aPTLS5/ghQ3u+F2D8DwBpt5w4ABtxv9lcIQ8exCeWHeZYA1qMBe4fzx82KH6YMGOBPEVxiYvrUHAZkaup3vQZ5lVwtBPE1WJbw9PT0oLS0VEp9+MuRC8h/ZV+Sh+KKHWWO/sCLwRiP6TxpRxZvH2xtx9FMDCsJ2nLiUKKrFaD87AGMlb0ZXwXiyH43reVDKU3MinsQ0PMfZtvO0sAweReP2ufWMG8NwfXJCDBHPyvXHyh090x6rAyvXPngCVXkBWAfSvPuPhwxSGNH/iRISMTs9EeTXDMDRWiU0/6sO9uNj4eHjQczuF/cPNbri9dxey6ZPwyDq35MkVyKFVJqPV3gUj5xXkC+VQiII5zS8vWa4ptn5O92FWvH8tbNpNau59dfJZ12x/xycx7vQ3maAkjwcxAtExsLLhdbhcGBqakpIfPrJiW8CrHk/zJq4xXod5InhezZuhZKpme/LO2IG4w0limdD/zB4nLT/t4Ip2E340zVtpzxwjTAjezsTvERlZOtV1ajZesMYvcXmE8opEy21nGLsPc6svB2yOcuUw6zAzp9x0W2E42Rtcr3TomBWvlyc5uRCsZHNz8T7PvjgYftHmRbapHoq8PZb4vQSBI5VxFwUiWm1LooZH4bdkfnnT1IM5Y/ZafjSn7D91GMkiBeHjIX38uXL4tQc6fIeO8E7zNJj0nNYkyIcBtbsjxVZDNn/xn/sAdwJxuaTCE8KwTBlr+XH5hPI3VjIpCKCYJBZ1IuUk25kVh4PiinOA3/BcPchONlqCpUK8oX9C4vyUk7CiveD4NVXKHgPhMxI26uhSYn5R7QCQqxerEUQGTSkXBsNOsfFMgRBPAM+XoQxyX2DkleSmueFe1JEI56E7lBPgJnpZCt22Uwwmd+No63FCBw3ou+2mP2USdurIemBkTkLdlVbrbATxHNCxsK7Y8cOcWqOdHmr5sFVOJm1JNGoIARdz5ehgH/L3p4vHDwt0R0qdE+wFbEhXStXmi9sO/TtZGw+genAHWZlSiCXs+3LZOCr/yWSpqdDJIzwd4kSLUfjoVooK7vQXjSBgY87V/8vtXVybMhhdvtX6cz2p4h4/h5K5OmvzWMSdoJ41slYeFtaWqDX65GXlyckPs3zHiszQdh+boE/R4G9NcWxvI1boWLa5//VKfhSTNDgqAfBxLyvh+FJ7GHAtudyBZhwKVG8TsxLJE8NbRlrKl+xw5OoqWw9+zkPU/9yqLgPNedtFJcwW3bIKb5sE5kJ4OQeDTTd1xKs41zkCj5dKXRtRii+c+JQt3eV/wgrhlLFvtxOuJLqGcBN7oN+WuSxerHzErkwAHuKszgy7oH3O3GGIF5wVuVq4EI7NjYmpMchun8JXINnxCMk1xkzasr0sAaYYPX2o3ZWKAuxt00LadiOhmozbFd4eRdsbXrom3twypuoRAFYq/WwDPEydliqa9B3F1DX717gH1m5UO9n4jjlgmlXE/qEbdth3VcP620ptL9sQHFcRA/ycqwOuzphF+rMt1+HgZACxnp1estuXS16mxQIXzGjZ3Q10svqWc/2Dw/M8XpesbFpvn+xyBMnH7K/ZV/s4Wbn+7/Ne5OI5wU+WOoMsArn3QP7EQMq603ouxDI0F1DEM8Xa8rHO+G2wNRqEpL5tA8vvWvE0aHP0V6a6N1lhmdpF4ZOm6CVeNHXwcsfwikmeKaTQ+hSJZRVGHHicDHu9JtZGQvsD+So6nXDokneXhJMHM99bkGtPATHL/m2LXBG3oaRbzuxHq/X4vSQBVUSD6xCna0YzvuQifxp1L4ulkmDrLoXxo0RuNg6qVbhimD7593p1C/5MMDPQa8T0xX9aNeIy584XPzboZaxVgnbv/nSN7FsVi/h/L0ZgbM3di1PXH8J5d2XcLpOkf6BRBAvGD+IMsRp4pknBNueCli/N+LS+VpkoUsvQRAZ8Az0aiDScs+GzjMpL9ceXGNNftYi+HEhiS5BrGHI4n1GCbtNqG7z4BWNEXtVMuRO34HznwfgDStgHDqX4BMnCGKtQcL7DBO5YUfP0RPw3IpgOkcCeZEODZ8YoU78tx5BEGsOEl6CIIgsQz5egiCILEPCSxAEkWVIeAmCILIMCS9BEESWIeElCILIMiS8BEEQWYaEN9uMmYXBwc1j4vwDF8y7dGgYzNroNgRBPGXWhvDyAJNJEQtiqaRMj4YjHoTSDGkV+doJS51mNhJwSZkB5iE/IonDNHJShW4xvvPD3mGARiXWoUSMXvxEhzN8hPC9CUxOrW6gSIIgnh3WlMWbHLmgC40lwM3zJlTsswkhZeKER0yo5MMxfvsjqPd3wXLIiHJFGJ5uJpo/Sy67bO7ZYNhugGUkgrd3xerRVa8EvFYYNDULRw5eLa/qcOKLcTjq0g9USRDEcwj/59pT549no9WbN0erfz0hZswx6aiLbmbL2n4rZnx7MVr/zubo5t1no998L+aJPPS0Rd9P3c5v25LXT8tE9OxP2Ta3tUWv/lnMivNwONrM9/ezi9FJMWtVLKs+BEE8z6x5H690i1oYtDx4L+YDDXw2AN9MAQzm+dF6JaqPsXcTK3PatkD49gW4YcOpu0Dh/o+h/qGYF0eihX6nBBh34dps5PgI/ENmGMpKZl0Shu40LpEZboXXiO6QEqjqLPD8SVwWR3Sz1JyJ+3i9MPNtdngQHrXM7UNVA8toYuh6RsQPW7MOJXz5FtEtcom7VpiFni6KMkEQa4K1/3Lt25AQEvwVyUvsMwTf9QngDR3K1wtLU5BiaykP3+7D+ApcAyH/TSalcmwtSh+vrfjAJbjdFpQLojwN7+FKQWgjZcZZl0TkQqpLJALvL6thGgoifyd3XXSh4a076Ol1icuX4IseVPdOoOhgzJWilQZgbz4wJ6g8LNJ+A6xj/47ifazM4Rbocp2oP7zM7RME8dRYlfD29PSgtLRUSHz68TItvEAztdkR4VZnGRfFIII8tvvfigEv0yB7nYehDOKbP8bml0PwK77ReGy0NORJIJVKYsvvnoTlQhiK/efgaK0Sgjhq93RhoFcL6W0rOtkygVuncOhKGAV1p2fLVR0cwFCHMrZ8SYrRMXgUjdvVUG+vRdchAzvmAIZ/F7OMp0dPwHobUB8awtF6Ldu+FrWHHTi9Z6EzQxDEWiFj4eVC63A4MDU1JSQ+vVrxDRyriDWrhcSa5rs6cS1PjfbTXVCLUXcecYvyPzIRjM1mncBv3JhgolhVkRymWFK6GzoZ4B+5Bi69wXEv+1ZAX5H80kzyw0XCDiWypRzKxKKKDeBxNvG9MAffmId9aqEtS96e4i2hFEEQa5iMhffy5cvi1Bzp8lZCYq+GrkouWBKoP+6CLiGG2Uvc6vxfkacWNHHy2wn2KUX+PK+EAm9vYl+BABNmIBTk0SHkkD+uAclzuKslTohZ6exr/QYhzDtBEM8Wa8rH+7Jiq9AkF5rvzUZUSSJw9dsFH28MJmRcj/8YEsQtHaF7McH7EY+Au0zkb/KNTmN6oW5oUxGEw0zsl+imJljjBEEQS5Cx8O7YsUOcmiNdXsbkFGPv/kLg7in0jcXtWxmKtxQAXzsxfFfMSiKMa2MBZigXo2iRSL+pyArfZrZ1ENfGU3oNiPiOVUDDrPHh74D817gPNYzJeUUDuHOLfSkUgv9ZJo/5moNzT43HiAzy/519fX0nsz7LBEE8VTIW3paWFuj1euTl5QmJT/O8x4l0Z0PM6v30JJO1GAq9AcU5Exjomv9Hicjopzh1g5WpqwWT7OWzqRZ71wP+45/Ck/oHsogLjgsss0iLrVK27b/TMGH1wX6JW9ZzRMbOwslEtrBsK7gXQq5UxV6GuZPLhR88HiUu3qIGZlxwjiRXOHCLqz9BEGuZVbkauNCOjY0J6XGLrkDc6r0/gFMjotX7qg5dh9VCDwL9Bw3oPOOC54oNnft10DS7ENlkRFfNSmPsylD7fxqhmHLBpNHDzLc54oHrjBl6jRmenEIYW3WCoGL9Pph2ShE4XgN9t322nIHtO7zRiHa2TGD9bpi2J5ezHzGgundFPYwXJFfVAONGwNNRiaZ+Xl8XbG161J1ZyAlDEMRaYU35eNMRs3qZwBxnVq9o4UrLLBgabEfVa9+wfDNMHVYMB6RQtw7A/S/z/1ixLF6vxTn3AExlEnj72TZbTTCf9kFSZsLAlQHUzroucqFsG8JAqxqSEWusXL8Xkp0WXDqZuG8JlJ+ch6VSjskLFlbOjBO3NqDlWKPwh5BVkyNH7fEBGEv/Cr6TrL5tPXBO69DfphULEASxVqFgl88ZofM1qDgCGC9QiHeCWKuseYuXWAD+z7XDqX7uMK55+MvFt1FIoksQaxayeJ9VHrhg2m2GR6KF0aCGLHcad658ioGxMBQHL+Fc9Ur93ARBZAsS3mcZPn7wEStOjPgRmWaG7uvF0O3vglE1798dBEGsIUh4CYIgsgz5eAmCILIMCS9BEESWIeElCILIMiS8BEEQWYaElyAIIsuQ8BIEQWQZEt4XCG8Hj+xhhlecJ7JAxAdrvRW+Jzl8J9tH3/540NMmuL4T858F7tvQdND5wg1vujb68fJIuzuts0M/xsn9oRxvb29A+3/l/8wSM4mM4cLbdEWLo+NdWG7ktziRG3b0HD0F7+0wIuxHwq/N1j3taK8phCQ+MNCC17EQ6nojWnYup+xS13wantYSmGDB9Ro/9HU2oO4cnPvTDz0UHjJA0+2Huvs6LAp7FuqXQMQLc2UTfFuOYuiQEkKQJh55+qgZJ67cRPA7PuJeLiRvqdHQ1IKqTcsMC5VEGM56DTq/lEO7fy/UMla/MkVsJL1ngZkgnB/Xo/O73XCcznCAq2eQNWXxJob+4VF5G0uAm+dTo/cuj2feuhvjYdqLYB4T558iwfNMvPZZ4Jl6G/rmuWtz7ZgBKiZ8qdcm+TqaUPXmBFzdBlQemT8k5oqv+ZQHrhEJqirVyH2rHJp1wMSQc4Fw/mFcdbElOVroVHMq+UTrN0sE3t5DcL1mRP8ncdENwlangWnwG+SrGtHFt3moEUp2TJZ9GhgGMxirOXwNrnFWzz1d6NrDg56KoruG7p9FyZFDd7gF2vtWmM8FxcwXAG7xPnX+eDZavXlztPrXE2LGHJOOuuhmtqztt2LGMrnWvpmt1xa9Js4/c/y2LaPjXoyMzol4bbb94mr04fdinshDV7NQx/rPJmMZC17Hh9GL/43vuzk6/G9iVobXXFi2rSf6e7EuE7+uZmW3RXu+jM0n8e1gtI7X/Z9+H5vPQv1m+bIn+v7miujxP4jzjEe/iZ2vZtdDMSfOw+jwz9n+32mOXo3vf7ksVM8ncP88SYRz+k599OK3YsZzzpr38Uq3qIXxa4P35qwB3uw116liPi0ejbiOWWMPYstCZ2qEJ33TFT7nQhMv05Fg985E4D9jgl7F1y1CSZkBltH0IX8SidywwVSpEtYp2qKCfn8fvKm+tAceWPfrodoS27aq0gTbjcQIESHYqtmyahv8txK2V6KD6Yyf2UgM3sTleQddwhqug3xbouUet2Iu+WDdE1t31qLhTdgjDbPHVaTSx7a5iFU2fb0TGnb+mq4sfPz+fz3FmtuFrCmsnmuGi0jK9MJYyT53LLLywkhQXMSv4kSakEnzSXfNY4Qw/JkfBbt0KBbrItPqWO0iGP7NfGs15OKWsATlZcVizkI8rvrFmYbnX+0Ir9fjw41iFmMyxAepV6BwY6pLQQL1dh0KXgvCf1vMYkRupbnP78+FeRVadaI7JB6hu+ZYX/r7Z8YHC783Die3AQPHdWy5Ca4pMYMTdqKBb+uMeHzTofT3VmypQOx3V4OBUSdMO0uEadt9ceF3ftia47+L5N9rHOn2Wqjhw8Bnqc6d55O1/3Lt25AQ7PIVSSzKboSJTyVr9vr+kx4dQlOtFoUhO0y7O+FlN4+ssh9utxtdZby0Gl1s2t0c/+Gx5t8vK2E4HoSirktoPhpVEdibNWi4sPAvLrZPK27K9LHm4Sd6yL4aQNMudkPH7z4umB8woQ3KoP+EN0tN0Eluwrqvkoljcnge/Oksmg84kf9Ru1CuVvHv8BxrQg+PLSerQj+v8yG1UFR9iE27W5AoHa7DTXCyHN1OJkB/zXOYoItNWNmu2HGZPpDg5jHWfP6lN+kHkgw7p7kv8c8FCMH/JVv7ja0oflXMSiSnGMYLrH7d5Uv6FCdCwlWEJC82vygp13yWuxfhuFsAjZrLnsir70G7iV2jK64UdwMTCxf7EbNrpisSsxbhsdQvzhRr/o8C8r9TInGMuHwZj8YXgOOcb941yVW1w3nJAaNYV/5QrOQCNVUOY9wlEWH3eWUdbPdiZYqb2bk/aQCP7ievGxDu+/66fenvH3atmOYBX9xM8FuH4PPyh4EH18ZjOQJ+H5PAAiiLWO25e2RfBUxDkyjez+9rdm+x35aH3Vv15/lZSCSAvtYeBGRqdm++Bzk/l9zPvcsAa1CBvcLvwgg1P44PGuBMFN+8rVCXsusw5hPO7XOPaPlmRHd3d/Tdd98VEp/OmLTNpUfRh19djDa/z5pg29qiV4XW2WT04s8rohWNg9GkhpWvJ7pNaMI9EjPSN6sfsebXNtYsbfMkNvXEZh5rvt4Uc5K5Ez3+IVv+07PJ+xSbsbE6P4pebUmsp8j330TP7o5tO9Y0noie/Smbf6c6ejYolIjxb8PRZratzV0JtU3XVBTz3m+/xmo9R6wJm3pc0eg38Wa4Lza/clfDtWgbr1fqsS9Euuv4/aPoN85m1uxm9WbHN3uFln3N5/j9P22Lbt47yO6CZB4JLo8Ud4O4/YoTd8QMxhOu3yxfxu7H+c38h+wavC9cw598WB/91PH76DcP5+7ZOeL33KnoN4nunYfsevB9J56DtPVkpLl/Jj+rZ3ns3osXFe7h96Pv822yeyrOTQs7z/Hfg+/TaOUHFdEer7BIZDI6uJet88FxVtMYMZcPr8c3Yg7nETtevq2Uc/WQ3e/vbI5usyT/4r4ZqGTbqI9eTL3AzyEZW7w9PT1wOByYmpoSEp/meash3lyKJdYk2dWJa3lqtJ/uglponUmh63XCebwqyZLAazJhfuLbydj8AvhGXIhIylGlSmzqsWZmCbMnIzfhjzeNErl9FW6WX6wvT97nqx+i/bgFe4uY1SO88GFb2l4l1lMkR46qGmZ5RIYxmhiD8o1yqBOjIOcpsOEN9v0oNrsUxWXiyxoB1qx1e9jOU4+LWUGVu5nNz5rho+lfPT0pkq7jlhLoD7H6abpwvlWJ1I4AS19zEdZUHnVHULzjvXnWde67Wqhz2HG6fGIOs+VGh5n9lWIdizyR+iUwze7DCNg15aZoEhIoD32OS921eBs3YevmzfcSlOxsgDXR3TV7z+mS3/JLlNhdwazmG6O4tgyXSCrSIiWrVQD+WzF3Rdg7Cr9Mh456dv//ziu2GMRWzrvKWMDYIiMcl5wwcWt5FikK+I+BtRKSf3EKlKsSDppds2F2zeb9LiTFUP6Y/Sy+9CdZt/LX+bUKsd9xbP55JmPhvXz5sjg1R7q8lZD4Brmrkl8ECdQfd0GXFKp9GqERKxp2xX1fLKXp9jOfEIJfsS/WzDHM/pBiSXN47gc7j0l2I7AvqXTezx3yLWqoN7L88KRQRvZafmxRArkbC9ntGEEwuNgv5SXkZtyNZhKTfOd/I8O8vecVonA9O+Svg0v4YB8vyT0B2LU8oMUrI2Z88LPFe0AsfM3ZVR91wD6lhl6TxqnBmqlaFTtO96jYXzaAixfYHbGpBrvY8afyJOqXyOS3/IIsRC5kZUacuHAd19kxHT2gw9uPfLA1a6A/4md3N2PBe45J21tvsc87CKQzEpZiHRM8JpiecX6/T8N33QfJu1uh5IIc8eIa9y9P+eG/C6iVCc4tPu5zhwGauI+Xpdg7lCUIBYXzGRk0JP3eioo06Ex0bcQRfgMTCC1uPz0XZCy8T4KXFVuhLmNixpK22RgL7d5vT3oqBvprUNE6LPjETl/i/qs5P9eykGlhSvjRzSUjlGl+06tmZjr2Y3oqPML0Ii/XlkaODVy42DEsZIxPfxdGWOiPOkfidRSu5Z4uDBxSY/qGFSdGFy670DXnIsGteslOPdRpfbC5UFdWQcJbFl+y2bsxi7FQO9865jz++mVGrkQO5Z52nPh8FBaNBMHzPbAvJairup4KbH2XmZ7czzt1DZ4xCbNQmV27To3y9RNwj7KH1Q0fPGACXSTa/hEPTNsNsNyWY2+vI/Z7Yyn2DmV5pD7oZlOTcr6x8IKQsfDu2LFDnJojXV7GxEO73z2FPv7SScAL++kgsL0DR+vVUMikglUglb4yr4k4n3zk83cbkVcgV8396OZScexlQCp/+yNB1Kf/13z5FESHh36Q5rNGLXvAp3F1TAfuIMisJLn8Sag6RzyuP6U2+xhTAdz5mtlob8iXfPmVHhkKf8x+qF9fgy/lLbQAa0pad2qgYQ/CpSxqiWD585dYi5gzaa8548FF2EeX6J3wYxXKmSgOj/gQ8LiZ3VQM3Qoicayqfim8JHlFnEokgIE9OugOpBHtHGZFa/hfWtj14l1Z82XC/RQOzz+rgdvcZ7UBigxj6hVuYfsJeeG76GECqxSa/Pw6F5cWYMLrg+tLZoquV6JYPHWhz0/BM62A8dN2VBWx+0j4vUkhWfoHN/u7eMgeMPN/byxtkSf/boWHSgFkL4AaZyy8LS0t0Ov1yMvLExKf5nmPk1hod2ZhfHpy1pXwiF+cmWT7K/LVnWVYILkofpfddBE7Bi6klI6wp/z1Bd79v14kWMIex8VkcYm4YNZoYOCdvvOYNcQsgMgVOzyJm5kJwn4u5n9V8RbiE4FZe5qYH9k+mnwMwaGz7MclWjUZUvjRXiZIfpw46pn3Jj4ywpr/LLNYs3VJYY/c9gvXsCCNOyaRdNc88Nk5+Nct0TuBiaJ2uwQRtxWH3KyhXqZH+QqeNqupXypSuZyddVFEZ5FD8fpDTFx3wiX2SkgkcIsLqig6G98T/hjic6T8lTbixdlL7Ng2qbB1BceWRBGz4FndTv3KC5Rune2WpyjVoOCuAydGJlCgLJ57n/E9/2CttsR6sPs6wN12S5HHLOcSVu0LA7Cn/uTGPfO6Y4bu8xPGHjqvxeafZ1blauBCOzY2JqTHLboCcQvj/gBOjXALo5g9KdmX2wx9hw2uETv6mvXQNLvmiUKs644PzjPsyf5FUGjuS3cYYdzIcrvrYDjCRHKELRuywlDZAFO/A4G0Rkwh9rZpIb1hQfWBPrZPts6VPqErmeeHWphquJ3ExG+/EYopF0y7mtB3hZVhdbPuq4f1thTaXzbM3uDL5q9jVo/vio1ty4dgYj/LFHLL+HExMWitRFO/Szgu+xED6o8FIN3ehYaFBIs1rTUlKphTmtdJrKtF1wEFEzQTNOyYbcKxuWDrYOe9zYPcTUaYKpJV4C8B1ozl50lM9iMNqOxgDyBpFWrLljCV5l3zAK4yIS3QvCdYpItRqNOjIBIQ/J/qsq0LtoIeb/3SsL5Q6P4X+DpReXOhbO6C7tUA+nZp0HCY3798/7F7uO70BLtWJuwW+v0qsK9ZB+ndPtRUW2Dn5dh9YK7j4zAw69NctXQLZqH7h4shux8ikYhgdc4e7catUEomMHFfAqVy7kzL/rOSbSeIvsYGWIc8cJ3pRMMHevTdFQssihS6g+x3wX6HljqDsH7sfBtQWW9C34VAghtuGv5b7FGWYG0/14i9G54uC3WJ4Xz/+2jPts3RzR8ej97hXWu+n4xe/afq6LZ3WN7mn0S3/UNP9Oofr8a6Pf3iamwdzsPfRz/dvU3o4sK738xuma//3+ujlXybfNm2ymj9f78anUjXqyeBh1+ejTb/F3F772yLVv78bPTmn8WFcb69Gv20sVKs2+botv/SHD37ZWI/GrE72bzuWWJ+Qpce3vXo9/9dPM536qKDfIV0XczipDmu5l/fTPq3WWp3skfeQ9H32Tk8cHnp/jsPvxyMtv3DtuhP+Lb5sZXXRdscyduPX0dh/4lp2/vRuvbB6M3EU7Hca/4F75rFjn9Z/2gSu2G9w44xsV5xnkT90u0nKnYvTNcN79FE9Nqv26J15eK9xFLac8l46E885/F7PeVGXbCeae4fkVjXr/ndtm7ybmRpzt1DP7v3P/yJeK5i99VNoetXZfSU2C0yts3q6Nk/xuaTmPe7qI9++puJua57nO+vRdvY8qTuf88xP+AfogYTxJrD161Cwz0j3P3MAhTznglYC0mzzwvdGScaE/69RqSHt6hUHRG0f36CtQrEzOcYEl6CeCJE4O2oRNO93bh0pja5DziRzIwflu0G3Kxx4NyeZfdPeqZZU93JCOL5QQJlcwe031rRfDx5XAMigZkwXG3NuLjOiK6aF0N0OSS8BPGkkCjRNXQCxbc8uLOq/rfPMaFhDE834ty/vDhj8XLI1UAQBJFlyOIlCILIMiS8BEEQWYaElyAIIsuQ8BIEQWQZEl6CIIgsQ8JLEASRZUh4CYIgsgwJL0EQRFYB/v8rvyRIxXm+IQAAAABJRU5ErkJggg==;" parent="1" vertex="1">
          <mxGeometry x="2060" y="260" width="350" height="361" as="geometry" />
        </mxCell>
        <mxCell id="g1zk6DP0Fgjaqv-QIjmF-12" value="&lt;b&gt;&lt;font style=&quot;font-size: 14px;&quot;&gt;MEMORY ARBITER&lt;/font&gt;&lt;/b&gt;" style="rounded=0;whiteSpace=wrap;html=1;" parent="1" vertex="1">
          <mxGeometry x="859" y="230" width="80" height="490" as="geometry" />
        </mxCell>
        <mxCell id="g1zk6DP0Fgjaqv-QIjmF-13" value="&lt;b&gt;&lt;font style=&quot;font-size: 14px;&quot;&gt;FETCH&lt;/font&gt;&lt;/b&gt;&lt;div&gt;&lt;b&gt;&lt;font style=&quot;font-size: 14px;&quot;&gt;LUMA, IME, FME&lt;/font&gt;&lt;/b&gt;&lt;/div&gt;" style="rounded=0;whiteSpace=wrap;html=1;" parent="1" vertex="1">
          <mxGeometry x="1007" y="300" width="120" height="60" as="geometry" />
        </mxCell>
        <mxCell id="g1zk6DP0Fgjaqv-QIjmF-14" value="&lt;b&gt;&lt;font style=&quot;font-size: 14px;&quot;&gt;CURRENT&lt;/font&gt;&lt;/b&gt;&lt;div&gt;&lt;b&gt;&lt;font style=&quot;font-size: 14px;&quot;&gt;MACRO-BLOCK&lt;/font&gt;&lt;/b&gt;&lt;/div&gt;" style="rounded=0;whiteSpace=wrap;html=1;" parent="1" vertex="1">
          <mxGeometry x="1287" y="130" width="140" height="60" as="geometry" />
        </mxCell>
        <mxCell id="g1zk6DP0Fgjaqv-QIjmF-16" value="" style="rounded=0;whiteSpace=wrap;html=1;" parent="1" vertex="1">
          <mxGeometry x="1167" y="230" width="240" height="290" as="geometry" />
        </mxCell>
        <mxCell id="g1zk6DP0Fgjaqv-QIjmF-17" value="INTER MOTION ESTIMATION&lt;div&gt;(IME)&lt;/div&gt;" style="rounded=0;whiteSpace=wrap;html=1;" parent="1" vertex="1">
          <mxGeometry x="1192.63" y="260" width="182.5" height="60" as="geometry" />
        </mxCell>
        <mxCell id="g1zk6DP0Fgjaqv-QIjmF-18" value="FRAG MOTION ESTIMATION&lt;div&gt;(FMA)&lt;/div&gt;" style="rounded=0;whiteSpace=wrap;html=1;" parent="1" vertex="1">
          <mxGeometry x="1190.7600000000002" y="350" width="186.25" height="60" as="geometry" />
        </mxCell>
        <mxCell id="g1zk6DP0Fgjaqv-QIjmF-19" value="&lt;font style=&quot;font-size: 14px;&quot;&gt;&lt;b&gt;TRANSFORM&lt;/b&gt;&lt;/font&gt;&lt;div&gt;&lt;font style=&quot;font-size: 14px;&quot;&gt;&lt;b&gt;&amp;amp;&lt;/b&gt;&lt;/font&gt;&lt;/div&gt;&lt;div&gt;&lt;font style=&quot;font-size: 14px;&quot;&gt;&lt;b&gt;QUANTIZE&lt;/b&gt;&lt;/font&gt;&lt;/div&gt;" style="rounded=0;whiteSpace=wrap;html=1;" parent="1" vertex="1">
          <mxGeometry x="1357" y="580" width="120" height="60" as="geometry" />
        </mxCell>
        <mxCell id="g1zk6DP0Fgjaqv-QIjmF-20" value="&lt;b&gt;&lt;font style=&quot;font-size: 14px;&quot;&gt;DEBLOCKING&lt;/font&gt;&lt;/b&gt;&lt;div&gt;&lt;b&gt;&lt;font style=&quot;font-size: 14px;&quot;&gt;FILTER&lt;/font&gt;&lt;/b&gt;&lt;/div&gt;" style="rounded=0;whiteSpace=wrap;html=1;" parent="1" vertex="1">
          <mxGeometry x="1177" y="731" width="120" height="60" as="geometry" />
        </mxCell>
        <mxCell id="g1zk6DP0Fgjaqv-QIjmF-21" value="&lt;b&gt;&lt;font style=&quot;font-size: 14px;&quot;&gt;BITSTREAM OUTPUT&lt;/font&gt;&lt;/b&gt;" style="rounded=0;whiteSpace=wrap;html=1;" parent="1" vertex="1">
          <mxGeometry x="1357" y="820" width="120" height="60" as="geometry" />
        </mxCell>
        <mxCell id="g1zk6DP0Fgjaqv-QIjmF-25" value="prediction + residual" style="endArrow=none;html=1;rounded=0;entryX=0.5;entryY=1;entryDx=0;entryDy=0;exitX=0.5;exitY=1;exitDx=0;exitDy=0;" parent="1" source="UfEq-I8O2FfTew14tHw4-6" target="g1zk6DP0Fgjaqv-QIjmF-16" edge="1">
          <mxGeometry x="-0.0857" y="-10" width="50" height="50" relative="1" as="geometry">
            <mxPoint x="1467" y="520" as="sourcePoint" />
            <mxPoint x="1277" y="310" as="targetPoint" />
            <Array as="points">
              <mxPoint x="1527" y="540" />
              <mxPoint x="1287" y="540" />
            </Array>
            <mxPoint as="offset" />
          </mxGeometry>
        </mxCell>
        <mxCell id="g1zk6DP0Fgjaqv-QIjmF-27" value="" style="endArrow=none;html=1;rounded=0;exitX=0.5;exitY=1;exitDx=0;exitDy=0;" parent="1" source="g1zk6DP0Fgjaqv-QIjmF-14" edge="1">
          <mxGeometry width="50" height="50" relative="1" as="geometry">
            <mxPoint x="1227" y="360" as="sourcePoint" />
            <mxPoint x="1357" y="210" as="targetPoint" />
          </mxGeometry>
        </mxCell>
        <mxCell id="g1zk6DP0Fgjaqv-QIjmF-30" value="&lt;font style=&quot;font-size: 14px;&quot;&gt;&lt;b&gt;FETCH CHROMA&lt;/b&gt;&lt;/font&gt;" style="rounded=0;whiteSpace=wrap;html=1;" parent="1" vertex="1">
          <mxGeometry x="1007" y="440" width="120" height="60" as="geometry" />
        </mxCell>
        <mxCell id="g1zk6DP0Fgjaqv-QIjmF-31" value="&lt;b&gt;&lt;font style=&quot;font-size: 14px;&quot;&gt;FETCH DB&lt;/font&gt;&lt;/b&gt;" style="rounded=0;whiteSpace=wrap;html=1;" parent="1" vertex="1">
          <mxGeometry x="1009" y="630" width="120" height="100" as="geometry" />
        </mxCell>
        <mxCell id="g1zk6DP0Fgjaqv-QIjmF-32" value="" style="shape=flexArrow;endArrow=classic;html=1;rounded=0;exitX=1;exitY=0.5;exitDx=0;exitDy=0;entryX=0;entryY=0.5;entryDx=0;entryDy=0;" parent="1" source="g1zk6DP0Fgjaqv-QIjmF-6" target="g1zk6DP0Fgjaqv-QIjmF-14" edge="1">
          <mxGeometry width="50" height="50" relative="1" as="geometry">
            <mxPoint x="1007" y="160" as="sourcePoint" />
            <mxPoint x="1187" y="160" as="targetPoint" />
          </mxGeometry>
        </mxCell>
        <mxCell id="g1zk6DP0Fgjaqv-QIjmF-33" value="&lt;b&gt;&lt;font style=&quot;font-size: 18px;&quot;&gt;COMPARE()&lt;/font&gt;&lt;/b&gt;" style="rhombus;whiteSpace=wrap;html=1;fillColor=#d5e8d4;strokeColor=#82b366;" parent="1" vertex="1">
          <mxGeometry x="897" y="780" width="150" height="140" as="geometry" />
        </mxCell>
        <mxCell id="g1zk6DP0Fgjaqv-QIjmF-34" value="" style="shape=flexArrow;endArrow=classic;html=1;rounded=0;exitX=0.5;exitY=1;exitDx=0;exitDy=0;entryX=0;entryY=0.5;entryDx=0;entryDy=0;" parent="1" source="UfEq-I8O2FfTew14tHw4-1" target="g1zk6DP0Fgjaqv-QIjmF-33" edge="1">
          <mxGeometry width="50" height="50" relative="1" as="geometry">
            <mxPoint x="750.9999999999998" y="430" as="sourcePoint" />
            <mxPoint x="1087" y="520" as="targetPoint" />
            <Array as="points">
              <mxPoint x="719" y="850" />
            </Array>
          </mxGeometry>
        </mxCell>
        <mxCell id="g1zk6DP0Fgjaqv-QIjmF-35" value="" style="shape=flexArrow;endArrow=classic;html=1;rounded=0;entryX=1;entryY=0.5;entryDx=0;entryDy=0;exitX=0;exitY=0.5;exitDx=0;exitDy=0;" parent="1" source="g1zk6DP0Fgjaqv-QIjmF-21" target="g1zk6DP0Fgjaqv-QIjmF-33" edge="1">
          <mxGeometry width="50" height="50" relative="1" as="geometry">
            <mxPoint x="1057" y="660" as="sourcePoint" />
            <mxPoint x="1067" y="830" as="targetPoint" />
          </mxGeometry>
        </mxCell>
        <mxCell id="g1zk6DP0Fgjaqv-QIjmF-38" value="&lt;font style=&quot;font-size: 14px;&quot;&gt;&lt;b&gt;INTER PREDICTION&lt;/b&gt;&lt;/font&gt;" style="text;html=1;align=center;verticalAlign=middle;whiteSpace=wrap;rounded=0;" parent="1" vertex="1">
          <mxGeometry x="1203.88" y="230" width="160" height="30" as="geometry" />
        </mxCell>
        <mxCell id="g1zk6DP0Fgjaqv-QIjmF-43" value="" style="shape=flexArrow;endArrow=classic;html=1;rounded=0;exitX=0.5;exitY=1;exitDx=0;exitDy=0;entryX=0.5;entryY=0;entryDx=0;entryDy=0;" parent="1" source="g1zk6DP0Fgjaqv-QIjmF-6" target="g1zk6DP0Fgjaqv-QIjmF-12" edge="1">
          <mxGeometry width="50" height="50" relative="1" as="geometry">
            <mxPoint x="969" y="400" as="sourcePoint" />
            <mxPoint x="1019" y="350" as="targetPoint" />
          </mxGeometry>
        </mxCell>
        <mxCell id="g1zk6DP0Fgjaqv-QIjmF-46" value="load" style="endArrow=classic;html=1;rounded=0;entryX=0;entryY=0.5;entryDx=0;entryDy=0;exitX=1.002;exitY=0.205;exitDx=0;exitDy=0;exitPerimeter=0;" parent="1" source="g1zk6DP0Fgjaqv-QIjmF-12" target="g1zk6DP0Fgjaqv-QIjmF-13" edge="1">
          <mxGeometry x="-0.0096" y="-10" width="50" height="50" relative="1" as="geometry">
            <mxPoint x="967" y="330" as="sourcePoint" />
            <mxPoint x="1117" y="380" as="targetPoint" />
            <mxPoint as="offset" />
          </mxGeometry>
        </mxCell>
        <mxCell id="g1zk6DP0Fgjaqv-QIjmF-47" value="load" style="endArrow=classic;html=1;rounded=0;entryX=0;entryY=0.5;entryDx=0;entryDy=0;exitX=1.01;exitY=0.49;exitDx=0;exitDy=0;exitPerimeter=0;" parent="1" source="g1zk6DP0Fgjaqv-QIjmF-12" target="g1zk6DP0Fgjaqv-QIjmF-30" edge="1">
          <mxGeometry x="-0.0304" y="-10" width="50" height="50" relative="1" as="geometry">
            <mxPoint x="947" y="460" as="sourcePoint" />
            <mxPoint x="1117" y="380" as="targetPoint" />
            <mxPoint as="offset" />
          </mxGeometry>
        </mxCell>
        <mxCell id="g1zk6DP0Fgjaqv-QIjmF-48" value="" style="endArrow=classic;html=1;rounded=0;exitX=1;exitY=0.5;exitDx=0;exitDy=0;entryX=0;entryY=0.5;entryDx=0;entryDy=0;" parent="1" source="g1zk6DP0Fgjaqv-QIjmF-13" target="g1zk6DP0Fgjaqv-QIjmF-17" edge="1">
          <mxGeometry width="50" height="50" relative="1" as="geometry">
            <mxPoint x="1237" y="390" as="sourcePoint" />
            <mxPoint x="1377" y="340" as="targetPoint" />
            <Array as="points">
              <mxPoint x="1147" y="330" />
              <mxPoint x="1147" y="290" />
            </Array>
          </mxGeometry>
        </mxCell>
        <mxCell id="g1zk6DP0Fgjaqv-QIjmF-51" value="" style="endArrow=classic;html=1;rounded=0;entryX=0;entryY=0.5;entryDx=0;entryDy=0;" parent="1" target="g1zk6DP0Fgjaqv-QIjmF-18" edge="1">
          <mxGeometry width="50" height="50" relative="1" as="geometry">
            <mxPoint x="1147" y="350" as="sourcePoint" />
            <mxPoint x="1287" y="340" as="targetPoint" />
            <Array as="points">
              <mxPoint x="1147" y="330" />
              <mxPoint x="1147" y="350" />
              <mxPoint x="1147" y="380" />
            </Array>
          </mxGeometry>
        </mxCell>
        <mxCell id="g1zk6DP0Fgjaqv-QIjmF-52" value="MOTION COMPENSATION&lt;div&gt;(MC)&lt;/div&gt;" style="rounded=0;whiteSpace=wrap;html=1;" parent="1" vertex="1">
          <mxGeometry x="1190.75" y="440" width="186.25" height="60" as="geometry" />
        </mxCell>
        <mxCell id="g1zk6DP0Fgjaqv-QIjmF-53" value="" style="endArrow=classic;html=1;rounded=0;exitX=1;exitY=0.5;exitDx=0;exitDy=0;entryX=0;entryY=0.5;entryDx=0;entryDy=0;" parent="1" source="g1zk6DP0Fgjaqv-QIjmF-30" target="g1zk6DP0Fgjaqv-QIjmF-52" edge="1">
          <mxGeometry width="50" height="50" relative="1" as="geometry">
            <mxPoint x="1327" y="370" as="sourcePoint" />
            <mxPoint x="1377" y="320" as="targetPoint" />
          </mxGeometry>
        </mxCell>
        <mxCell id="g1zk6DP0Fgjaqv-QIjmF-54" value="&lt;span style=&quot;font-size: 14px;&quot;&gt;&lt;b&gt;ENTROPHY&lt;/b&gt;&lt;/span&gt;" style="rounded=0;whiteSpace=wrap;html=1;" parent="1" vertex="1">
          <mxGeometry x="1357" y="720" width="120" height="60" as="geometry" />
        </mxCell>
        <mxCell id="g1zk6DP0Fgjaqv-QIjmF-55" value="" style="endArrow=classic;html=1;rounded=0;exitX=0.5;exitY=1;exitDx=0;exitDy=0;entryX=0.5;entryY=0;entryDx=0;entryDy=0;" parent="1" source="g1zk6DP0Fgjaqv-QIjmF-54" target="g1zk6DP0Fgjaqv-QIjmF-21" edge="1">
          <mxGeometry width="50" height="50" relative="1" as="geometry">
            <mxPoint x="1427" y="610" as="sourcePoint" />
            <mxPoint x="1427" y="630" as="targetPoint" />
          </mxGeometry>
        </mxCell>
        <mxCell id="J7AkLi7tqBLVjrCW03eT-1" value="load-ext" style="endArrow=classic;html=1;rounded=0;entryX=0;entryY=0.75;entryDx=0;entryDy=0;labelBackgroundColor=none;exitX=1.001;exitY=0.969;exitDx=0;exitDy=0;exitPerimeter=0;" parent="1" source="g1zk6DP0Fgjaqv-QIjmF-12" target="g1zk6DP0Fgjaqv-QIjmF-31" edge="1">
          <mxGeometry y="5" width="50" height="50" relative="1" as="geometry">
            <mxPoint x="967" y="665" as="sourcePoint" />
            <mxPoint x="997" y="520" as="targetPoint" />
            <mxPoint as="offset" />
          </mxGeometry>
        </mxCell>
        <mxCell id="UfEq-I8O2FfTew14tHw4-1" value="&lt;b&gt;&lt;font style=&quot;font-size: 14px;&quot;&gt;bs_check.dat&lt;/font&gt;&lt;/b&gt;" style="rounded=1;whiteSpace=wrap;html=1;" parent="1" vertex="1">
          <mxGeometry x="660" y="350" width="120" height="60" as="geometry" />
        </mxCell>
        <UserObject label="&lt;b&gt;&lt;font style=&quot;font-size: 14px;&quot;&gt;cur_mb_p4.dat&lt;/font&gt;&lt;/b&gt;" link="cur_mb_p4.dat" id="UfEq-I8O2FfTew14tHw4-2">
          <mxCell style="rounded=1;whiteSpace=wrap;html=1;" parent="1" vertex="1">
            <mxGeometry x="660" y="130" width="120" height="60" as="geometry" />
          </mxCell>
        </UserObject>
        <mxCell id="UfEq-I8O2FfTew14tHw4-5" value="" style="endArrow=classic;startArrow=classic;html=1;rounded=0;entryX=0.5;entryY=0;entryDx=0;entryDy=0;exitX=0.5;exitY=0;exitDx=0;exitDy=0;" parent="1" source="g1zk6DP0Fgjaqv-QIjmF-38" edge="1">
          <mxGeometry width="50" height="50" relative="1" as="geometry">
            <mxPoint x="1227" y="230" as="sourcePoint" />
            <mxPoint x="1527" y="230" as="targetPoint" />
            <Array as="points">
              <mxPoint x="1284" y="210" />
              <mxPoint x="1527" y="210" />
            </Array>
          </mxGeometry>
        </mxCell>
        <mxCell id="UfEq-I8O2FfTew14tHw4-6" value="&lt;b&gt;&lt;font style=&quot;font-size: 14px;&quot;&gt;INTRA&lt;/font&gt;&lt;/b&gt;&lt;div&gt;&lt;b&gt;&lt;font style=&quot;font-size: 14px;&quot;&gt;PREDICTION&lt;/font&gt;&lt;/b&gt;&lt;/div&gt;" style="rounded=0;whiteSpace=wrap;html=1;" parent="1" vertex="1">
          <mxGeometry x="1467.01" y="230" width="119.99" height="290" as="geometry" />
        </mxCell>
        <mxCell id="L1XYnjK6Nz0oNb2PrBE--1" value="" style="endArrow=classic;html=1;rounded=0;exitX=0.5;exitY=1;exitDx=0;exitDy=0;entryX=0.5;entryY=0;entryDx=0;entryDy=0;" parent="1" source="g1zk6DP0Fgjaqv-QIjmF-17" target="g1zk6DP0Fgjaqv-QIjmF-18" edge="1">
          <mxGeometry width="50" height="50" relative="1" as="geometry">
            <mxPoint x="1197" y="440" as="sourcePoint" />
            <mxPoint x="1247" y="390" as="targetPoint" />
          </mxGeometry>
        </mxCell>
        <mxCell id="L1XYnjK6Nz0oNb2PrBE--2" value="" style="endArrow=classic;html=1;rounded=0;exitX=0.5;exitY=1;exitDx=0;exitDy=0;entryX=0.5;entryY=0;entryDx=0;entryDy=0;" parent="1" source="g1zk6DP0Fgjaqv-QIjmF-18" target="g1zk6DP0Fgjaqv-QIjmF-52" edge="1">
          <mxGeometry width="50" height="50" relative="1" as="geometry">
            <mxPoint x="1277" y="420" as="sourcePoint" />
            <mxPoint x="1327" y="370" as="targetPoint" />
          </mxGeometry>
        </mxCell>
        <mxCell id="L1XYnjK6Nz0oNb2PrBE--3" value="store-ext" style="endArrow=classic;html=1;rounded=0;exitX=0;exitY=0.25;exitDx=0;exitDy=0;entryX=1.014;entryY=0.868;entryDx=0;entryDy=0;entryPerimeter=0;labelBackgroundColor=none;" parent="1" source="g1zk6DP0Fgjaqv-QIjmF-31" target="g1zk6DP0Fgjaqv-QIjmF-12" edge="1">
          <mxGeometry x="0.0221" y="-5" width="50" height="50" relative="1" as="geometry">
            <mxPoint x="987" y="680" as="sourcePoint" />
            <mxPoint x="967" y="640" as="targetPoint" />
            <mxPoint as="offset" />
          </mxGeometry>
        </mxCell>
        <mxCell id="L1XYnjK6Nz0oNb2PrBE--5" value="" style="endArrow=classic;html=1;rounded=0;entryX=0.5;entryY=0;entryDx=0;entryDy=0;" parent="1" target="g1zk6DP0Fgjaqv-QIjmF-19" edge="1">
          <mxGeometry width="50" height="50" relative="1" as="geometry">
            <mxPoint x="1417" y="540" as="sourcePoint" />
            <mxPoint x="1387" y="540" as="targetPoint" />
          </mxGeometry>
        </mxCell>
        <mxCell id="L1XYnjK6Nz0oNb2PrBE--6" value="" style="endArrow=classic;html=1;rounded=0;exitX=0.25;exitY=1;exitDx=0;exitDy=0;entryX=0.75;entryY=0;entryDx=0;entryDy=0;" parent="1" source="g1zk6DP0Fgjaqv-QIjmF-19" target="g1zk6DP0Fgjaqv-QIjmF-20" edge="1">
          <mxGeometry width="50" height="50" relative="1" as="geometry">
            <mxPoint x="1217" y="730" as="sourcePoint" />
            <mxPoint x="1267" y="680" as="targetPoint" />
            <Array as="points">
              <mxPoint x="1387" y="680" />
              <mxPoint x="1267" y="680" />
            </Array>
          </mxGeometry>
        </mxCell>
        <mxCell id="L1XYnjK6Nz0oNb2PrBE--7" value="read" style="endArrow=classic;html=1;rounded=0;exitX=1;exitY=0.5;exitDx=0;exitDy=0;entryX=0.25;entryY=0;entryDx=0;entryDy=0;" parent="1" source="g1zk6DP0Fgjaqv-QIjmF-31" target="g1zk6DP0Fgjaqv-QIjmF-20" edge="1">
          <mxGeometry x="-0.2079" y="10" width="50" height="50" relative="1" as="geometry">
            <mxPoint x="1167" y="700" as="sourcePoint" />
            <mxPoint x="1217" y="650" as="targetPoint" />
            <Array as="points">
              <mxPoint x="1207" y="680" />
            </Array>
            <mxPoint as="offset" />
          </mxGeometry>
        </mxCell>
        <mxCell id="L1XYnjK6Nz0oNb2PrBE--8" value="write" style="endArrow=classic;html=1;rounded=0;entryX=0.5;entryY=1;entryDx=0;entryDy=0;exitX=0.5;exitY=1;exitDx=0;exitDy=0;" parent="1" source="g1zk6DP0Fgjaqv-QIjmF-20" target="g1zk6DP0Fgjaqv-QIjmF-31" edge="1">
          <mxGeometry x="-0.2355" y="-10" width="50" height="50" relative="1" as="geometry">
            <mxPoint x="1157" y="680" as="sourcePoint" />
            <mxPoint x="1207" y="630" as="targetPoint" />
            <Array as="points">
              <mxPoint x="1237" y="820" />
              <mxPoint x="1069" y="820" />
            </Array>
            <mxPoint as="offset" />
          </mxGeometry>
        </mxCell>
        <mxCell id="St8QxVWhBDYI59RGn4Xr-1" value="reconstruction" style="endArrow=classic;html=1;rounded=0;exitX=1;exitY=0.5;exitDx=0;exitDy=0;entryX=1;entryY=0.5;entryDx=0;entryDy=0;" parent="1" source="g1zk6DP0Fgjaqv-QIjmF-19" target="UfEq-I8O2FfTew14tHw4-6" edge="1">
          <mxGeometry x="-0.7464" y="10" width="50" height="50" relative="1" as="geometry">
            <mxPoint x="1359" y="490" as="sourcePoint" />
            <mxPoint x="1639" y="380" as="targetPoint" />
            <Array as="points">
              <mxPoint x="1659" y="610" />
              <mxPoint x="1659" y="375" />
            </Array>
            <mxPoint as="offset" />
          </mxGeometry>
        </mxCell>
        <mxCell id="St8QxVWhBDYI59RGn4Xr-2" value="" style="endArrow=classic;html=1;rounded=0;exitX=0.5;exitY=1;exitDx=0;exitDy=0;entryX=0.5;entryY=0;entryDx=0;entryDy=0;" parent="1" source="g1zk6DP0Fgjaqv-QIjmF-19" target="g1zk6DP0Fgjaqv-QIjmF-54" edge="1">
          <mxGeometry width="50" height="50" relative="1" as="geometry">
            <mxPoint x="1399" y="730" as="sourcePoint" />
            <mxPoint x="1449" y="680" as="targetPoint" />
          </mxGeometry>
        </mxCell>
      </root>
    </mxGraphModel>
  </diagram>
</mxfile>
